<?xml version="1.0" encoding="UTF-8" standalone="no"?>
<!DOCTYPE svg PUBLIC "-//W3C//DTD SVG 1.1//EN"
 "http://www.w3.org/Graphics/SVG/1.1/DTD/svg11.dtd">
<!-- Generated by graphviz version 2.43.0 (0)
 -->
<!-- Title: context_diagram Pages: 1 -->
<svg width="519pt" height="260pt"
 viewBox="0.00 0.00 519.00 260.00" xmlns="http://www.w3.org/2000/svg" xmlns:xlink="http://www.w3.org/1999/xlink">
<g id="graph0" class="graph" transform="scale(1 1) rotate(0) translate(4 256)">
<title>context_diagram</title>
<polygon fill="white" stroke="transparent" points="-4,4 -4,-256 515,-256 515,4 -4,4"/>
<g id="clust1" class="cluster">
<title>cluster_build_context</title>
<polygon fill="lightblue" stroke="lightblue" points="111,-8 111,-83 503,-83 503,-8 111,-8"/>
<text text-anchor="middle" x="164.5" y="-67.8" font-family="Helvetica,sans-Serif" font-size="14.00">build context</text>
</g>
<g id="clust2" class="cluster">
<title>cluster_build_profile</title>
<polygon fill="none" stroke="white" points="8,-91 8,-244 208,-244 208,-91 8,-91"/>
<text text-anchor="middle" x="57.5" y="-228.8" font-family="Helvetica,sans-Serif" font-size="14.00">build profile</text>
</g>
<g id="clust3" class="cluster">
<title>cluster_host_profile</title>
<polygon fill="none" stroke="white" points="216,-91 216,-244 416,-244 416,-91 216,-91"/>
<text text-anchor="middle" x="263.5" y="-228.8" font-family="Helvetica,sans-Serif" font-size="14.00">host profile</text>
</g>
<!-- arm&#45;toolchain/13.2 -->
<g id="node1" class="node">
<title>arm&#45;toolchain/13.2</title>
<polygon fill="lightblue" stroke="lightblue" points="495,-52 347,-52 347,-16 495,-16 495,-52"/>
<text text-anchor="middle" x="421" y="-30.3" font-family="Helvetica,sans-Serif" font-size="14.00">arm&#45;toolchain/13.2</text>
</g>
<!-- settings -->
<g id="node2" class="node">
<title>settings</title>
<polygon fill="lightblue" stroke="black" points="191,-52 119,-52 119,-16 191,-16 191,-52"/>
<text text-anchor="middle" x="155" y="-30.3" font-family="Helvetica,sans-Serif" font-size="14.00">settings</text>
</g>
<!-- settings_target -->
<g id="node3" class="node">
<title>settings_target</title>
<polygon fill="pink" stroke="black" points="329,-52 209,-52 209,-16 329,-16 329,-52"/>
<text text-anchor="middle" x="269" y="-30.3" font-family="Helvetica,sans-Serif" font-size="14.00">settings_target</text>
</g>
<!-- build_profile -->
<g id="node4" class="node">
<title>build_profile</title>
<polygon fill="lightblue" stroke="lightblue" points="16,-99.5 16,-212.5 200,-212.5 200,-99.5 16,-99.5"/>
<text text-anchor="start" x="24" y="-197.3" font-family="Helvetica,sans-Serif" font-size="14.00">[settings]</text>
<text text-anchor="start" x="24" y="-182.3" font-family="Helvetica,sans-Serif" font-size="14.00">arch=x86_64</text>
<text text-anchor="start" x="24" y="-167.3" font-family="Helvetica,sans-Serif" font-size="14.00">build_type=Release</text>
<text text-anchor="start" x="24" y="-152.3" font-family="Helvetica,sans-Serif" font-size="14.00">compiler=gcc</text>
<text text-anchor="start" x="24" y="-137.3" font-family="Helvetica,sans-Serif" font-size="14.00">compiler.cppstd=gnu14</text>
<text text-anchor="start" x="24" y="-122.3" font-family="Helvetica,sans-Serif" font-size="14.00">compiler.version=7</text>
<text text-anchor="start" x="24" y="-107.3" font-family="Helvetica,sans-Serif" font-size="14.00">os=Linux</text>
</g>
<!-- build_profile&#45;&gt;settings -->
<g id="edge1" class="edge">
<title>build_profile&#45;&gt;settings</title>
<path fill="none" stroke="black" d="M129.85,-99.22C134.99,-86.09 140.23,-72.7 144.59,-61.57"/>
<polygon fill="black" stroke="black" points="147.93,-62.64 148.32,-52.05 141.42,-60.08 147.93,-62.64"/>
</g>
<!-- host_profile -->
<g id="node5" class="node">
<title>host_profile</title>
<polygon fill="pink" stroke="pink" points="224,-99.5 224,-212.5 408,-212.5 408,-99.5 224,-99.5"/>
<text text-anchor="start" x="232" y="-197.3" font-family="Helvetica,sans-Serif" font-size="14.00">[settings]</text>
<text text-anchor="start" x="232" y="-182.3" font-family="Helvetica,sans-Serif" font-size="14.00">arch=armv8</text>
<text text-anchor="start" x="232" y="-167.3" font-family="Helvetica,sans-Serif" font-size="14.00">build_type=Release</text>
<text text-anchor="start" x="232" y="-152.3" font-family="Helvetica,sans-Serif" font-size="14.00">compiler=gcc</text>
<text text-anchor="start" x="232" y="-137.3" font-family="Helvetica,sans-Serif" font-size="14.00">compiler.cppstd=gnu14</text>
<text text-anchor="start" x="232" y="-122.3" font-family="Helvetica,sans-Serif" font-size="14.00">compiler.version=13</text>
<text text-anchor="start" x="232" y="-107.3" font-family="Helvetica,sans-Serif" font-size="14.00">os=Linux</text>
</g>
<!-- host_profile&#45;&gt;settings_target -->
<g id="edge2" class="edge">
<title>host_profile&#45;&gt;settings_target</title>
<path fill="none" stroke="black" d="M294.15,-99.22C289.01,-86.09 283.77,-72.7 279.41,-61.57"/>
<polygon fill="black" stroke="black" points="282.58,-60.08 275.68,-52.05 276.07,-62.64 282.58,-60.08"/>
</g>
</g>
</svg>
