<?xml version="1.0" encoding="UTF-8" standalone="no"?>
<!DOCTYPE svg PUBLIC "-//W3C//DTD SVG 1.1//EN"
 "http://www.w3.org/Graphics/SVG/1.1/DTD/svg11.dtd">
<!-- Generated by graphviz version 2.43.0 (0)
 -->
<!-- Title: conflict Pages: 1 -->
<svg width="260pt" height="188pt"
 viewBox="0.00 0.00 259.50 188.00" xmlns="http://www.w3.org/2000/svg" xmlns:xlink="http://www.w3.org/1999/xlink">
<g id="graph0" class="graph" transform="scale(1 1) rotate(0) translate(4 184)">
<title>conflict</title>
<polygon fill="white" stroke="transparent" points="-4,4 -4,-184 255.5,-184 255.5,4 -4,4"/>
<!-- game/1.0 -->
<g id="node1" class="node">
<title>game/1.0</title>
<polygon fill="lightskyblue" stroke="black" points="138.5,-36 55.5,-36 55.5,0 138.5,0 138.5,-36"/>
<text text-anchor="middle" x="97" y="-14.3" font-family="Times,serif" font-size="14.00">game/1.0</text>
</g>
<!-- engine/1.0 -->
<g id="node2" class="node">
<title>engine/1.0</title>
<polygon fill="lightskyblue" stroke="black" points="92,-108 0,-108 0,-72 92,-72 92,-108"/>
<text text-anchor="middle" x="46" y="-86.3" font-family="Times,serif" font-size="14.00">engine/1.0</text>
</g>
<!-- game/1.0&#45;&gt;engine/1.0 -->
<g id="edge1" class="edge">
<title>game/1.0&#45;&gt;engine/1.0</title>
<path fill="none" stroke="black" d="M84.39,-36.3C78.4,-44.53 71.12,-54.52 64.52,-63.58"/>
<polygon fill="black" stroke="black" points="61.52,-61.75 58.46,-71.9 67.18,-65.87 61.52,-61.75"/>
</g>
<!-- intro/1.0 -->
<g id="node4" class="node">
<title>intro/1.0</title>
<polygon fill="lightskyblue" stroke="black" points="188,-108 110,-108 110,-72 188,-72 188,-108"/>
<text text-anchor="middle" x="149" y="-86.3" font-family="Times,serif" font-size="14.00">intro/1.0</text>
</g>
<!-- game/1.0&#45;&gt;intro/1.0 -->
<g id="edge3" class="edge">
<title>game/1.0&#45;&gt;intro/1.0</title>
<path fill="none" stroke="black" d="M109.85,-36.3C116.03,-44.61 123.54,-54.72 130.32,-63.86"/>
<polygon fill="black" stroke="black" points="127.52,-65.96 136.29,-71.9 133.14,-61.78 127.52,-65.96"/>
</g>
<!-- matrix/1.1 -->
<g id="node3" class="node">
<title>matrix/1.1</title>
<polygon fill="lightskyblue" stroke="black" points="142.5,-180 51.5,-180 51.5,-144 142.5,-144 142.5,-180"/>
<text text-anchor="middle" x="97" y="-158.3" font-family="Times,serif" font-size="14.00">matrix/1.1</text>
</g>
<!-- engine/1.0&#45;&gt;matrix/1.1 -->
<g id="edge2" class="edge">
<title>engine/1.0&#45;&gt;matrix/1.1</title>
<path fill="none" stroke="black" d="M58.61,-108.3C64.6,-116.53 71.88,-126.52 78.48,-135.58"/>
<polygon fill="black" stroke="black" points="75.82,-137.87 84.54,-143.9 81.48,-133.75 75.82,-137.87"/>
</g>
<!-- matrix/1.0 -->
<g id="node5" class="node">
<title>matrix/1.0</title>
<polygon fill="lightskyblue" stroke="black" points="251.5,-180 160.5,-180 160.5,-144 251.5,-144 251.5,-180"/>
<text text-anchor="middle" x="206" y="-158.3" font-family="Times,serif" font-size="14.00">matrix/1.0</text>
</g>
<!-- matrix/1.1&#45;&gt;matrix/1.0 -->
<!-- intro/1.0&#45;&gt;matrix/1.1 -->
<g id="edge4" class="edge">
<title>intro/1.0&#45;&gt;matrix/1.1</title>
<path fill="none" stroke="black" d="M136.15,-108.3C129.97,-116.61 122.46,-126.72 115.68,-135.86"/>
<polygon fill="black" stroke="black" points="112.86,-133.78 109.71,-143.9 118.48,-137.96 112.86,-133.78"/>
</g>
</g>
</svg>
