<?xml version="1.0" encoding="UTF-8" standalone="no"?>
<!DOCTYPE svg PUBLIC "-//W3C//DTD SVG 1.1//EN"
 "http://www.w3.org/Graphics/SVG/1.1/DTD/svg11.dtd">
<!-- Generated by graphviz version 2.43.0 (0)
 -->
<!-- Title: repositories Pages: 1 -->
<svg width="807pt" height="192pt"
 viewBox="0.00 0.00 807.00 192.00" xmlns="http://www.w3.org/2000/svg" xmlns:xlink="http://www.w3.org/1999/xlink">
<g id="graph0" class="graph" transform="scale(1 1) rotate(0) translate(4 188)">
<title>repositories</title>
<polygon fill="white" stroke="transparent" points="-4,4 -4,-188 803,-188 803,4 -4,4"/>
<g id="clust1" class="cluster">
<title>cluster_0</title>
<polygon fill="lightgrey" stroke="lightgrey" points="8,-8 8,-176 791,-176 791,-8 8,-8"/>
<text text-anchor="middle" x="399.5" y="-160.8" font-family="Times,serif" font-size="14.00">Packages server</text>
</g>
<g id="clust2" class="cluster">
<title>cluster_1</title>
<polygon fill="lightblue" stroke="lightblue" points="16,-55 16,-145 115,-145 115,-55 16,-55"/>
<text text-anchor="middle" x="65.5" y="-129.8" font-family="Times,serif" font-size="14.00">packages</text>
<text text-anchor="middle" x="65.5" y="-114.8" font-family="Times,serif" font-size="14.00"> repository</text>
</g>
<g id="clust3" class="cluster">
<title>cluster_2</title>
<polygon fill="lightblue" stroke="lightblue" points="135,-55 135,-145 231,-145 231,-55 135,-55"/>
<text text-anchor="middle" x="183" y="-129.8" font-family="Times,serif" font-size="14.00">products</text>
<text text-anchor="middle" x="183" y="-114.8" font-family="Times,serif" font-size="14.00"> repository</text>
</g>
<g id="clust4" class="cluster">
<title>cluster_3</title>
<polygon fill="lightblue" stroke="lightblue" points="251,-16 251,-145 783,-145 783,-16 251,-16"/>
<text text-anchor="middle" x="517" y="-129.8" font-family="Times,serif" font-size="14.00">develop repository</text>
</g>
<!-- packages -->
<!-- products -->
<!-- packages&#45;&gt;products -->
<!-- game/1.0 -->
<g id="node3" class="node">
<title>game/1.0</title>
<polygon fill="lightgreen" stroke="black" points="342,-106 259,-106 259,-70 342,-70 342,-106"/>
<text text-anchor="middle" x="300.5" y="-84.3" font-family="Times,serif" font-size="14.00">game/1.0</text>
</g>
<!-- products&#45;&gt;game/1.0 -->
<!-- engine/1.0 -->
<g id="node4" class="node">
<title>engine/1.0</title>
<polygon fill="lightskyblue" stroke="black" points="485,-114 393,-114 393,-78 485,-78 485,-114"/>
<text text-anchor="middle" x="439" y="-92.3" font-family="Times,serif" font-size="14.00">engine/1.0</text>
</g>
<!-- game/1.0&#45;&gt;engine/1.0 -->
<g id="edge1" class="edge">
<title>game/1.0&#45;&gt;engine/1.0</title>
<path fill="none" stroke="black" d="M342.08,-90.38C354.73,-91.12 368.91,-91.95 382.4,-92.74"/>
<polygon fill="black" stroke="black" points="382.36,-96.25 392.55,-93.34 382.77,-89.26 382.36,-96.25"/>
</g>
<!-- ai/1.0 -->
<g id="node5" class="node">
<title>ai/1.0</title>
<polygon fill="lightskyblue" stroke="black" points="616.5,-114 560.5,-114 560.5,-78 616.5,-78 616.5,-114"/>
<text text-anchor="middle" x="588.5" y="-92.3" font-family="Times,serif" font-size="14.00">ai/1.0</text>
</g>
<!-- engine/1.0&#45;&gt;ai/1.0 -->
<g id="edge2" class="edge">
<title>engine/1.0&#45;&gt;ai/1.0</title>
<path fill="none" stroke="black" d="M485.06,-96C505.88,-96 530.33,-96 550.11,-96"/>
<polygon fill="black" stroke="black" points="550.28,-99.5 560.28,-96 550.28,-92.5 550.28,-99.5"/>
</g>
<!-- graphics/1.0 -->
<g id="node7" class="node">
<title>graphics/1.0</title>
<polygon fill="lightskyblue" stroke="black" points="641,-60 536,-60 536,-24 641,-24 641,-60"/>
<text text-anchor="middle" x="588.5" y="-38.3" font-family="Times,serif" font-size="14.00">graphics/1.0</text>
</g>
<!-- engine/1.0&#45;&gt;graphics/1.0 -->
<g id="edge4" class="edge">
<title>engine/1.0&#45;&gt;graphics/1.0</title>
<path fill="none" stroke="black" d="M485.06,-79.5C498.82,-74.47 514.16,-68.85 528.69,-63.53"/>
<polygon fill="black" stroke="black" points="529.91,-66.81 538.1,-60.09 527.5,-60.24 529.91,-66.81"/>
</g>
<!-- mathlib/1.0 -->
<g id="node6" class="node">
<title>mathlib/1.0</title>
<polygon fill="lightskyblue" stroke="black" points="775,-87 677,-87 677,-51 775,-51 775,-87"/>
<text text-anchor="middle" x="726" y="-65.3" font-family="Times,serif" font-size="14.00">mathlib/1.0</text>
</g>
<!-- ai/1.0&#45;&gt;mathlib/1.0 -->
<g id="edge3" class="edge">
<title>ai/1.0&#45;&gt;mathlib/1.0</title>
<path fill="none" stroke="black" d="M616.59,-90.6C630.99,-87.73 649.28,-84.09 666.71,-80.62"/>
<polygon fill="black" stroke="black" points="667.71,-83.98 676.84,-78.6 666.35,-77.12 667.71,-83.98"/>
</g>
<!-- graphics/1.0&#45;&gt;mathlib/1.0 -->
<g id="edge5" class="edge">
<title>graphics/1.0&#45;&gt;mathlib/1.0</title>
<path fill="none" stroke="black" d="M641.11,-52.28C649.5,-53.96 658.24,-55.7 666.77,-57.4"/>
<polygon fill="black" stroke="black" points="666.16,-60.84 676.65,-59.37 667.53,-53.98 666.16,-60.84"/>
</g>
<!-- mapviewer/1.0 -->
<g id="node8" class="node">
<title>mapviewer/1.0</title>
<polygon fill="lightgreen" stroke="black" points="500,-60 378,-60 378,-24 500,-24 500,-60"/>
<text text-anchor="middle" x="439" y="-38.3" font-family="Times,serif" font-size="14.00">mapviewer/1.0</text>
</g>
<!-- mapviewer/1.0&#45;&gt;graphics/1.0 -->
<g id="edge6" class="edge">
<title>mapviewer/1.0&#45;&gt;graphics/1.0</title>
<path fill="none" stroke="black" d="M500.42,-42C508.79,-42 517.4,-42 525.79,-42"/>
<polygon fill="black" stroke="black" points="525.9,-45.5 535.9,-42 525.9,-38.5 525.9,-45.5"/>
</g>
</g>
</svg>
