<?xml version="1.0" encoding="UTF-8" standalone="no"?>
<!DOCTYPE svg PUBLIC "-//W3C//DTD SVG 1.1//EN"
 "http://www.w3.org/Graphics/SVG/1.1/DTD/svg11.dtd">
<!-- Generated by graphviz version 2.43.0 (0)
 -->
<!-- Title: repositories Pages: 1 -->
<svg width="389pt" height="207pt"
 viewBox="0.00 0.00 389.00 207.00" xmlns="http://www.w3.org/2000/svg" xmlns:xlink="http://www.w3.org/1999/xlink">
<g id="graph0" class="graph" transform="scale(1 1) rotate(0) translate(4 203)">
<title>repositories</title>
<polygon fill="white" stroke="transparent" points="-4,4 -4,-203 385,-203 385,4 -4,4"/>
<g id="clust1" class="cluster">
<title>cluster_0</title>
<polygon fill="lightgrey" stroke="lightgrey" points="8,-8 8,-191 373,-191 373,-8 8,-8"/>
<text text-anchor="middle" x="190.5" y="-175.8" font-family="Times,serif" font-size="14.00">Packages server</text>
</g>
<g id="clust2" class="cluster">
<title>cluster_1</title>
<polygon fill="lightblue" stroke="lightblue" points="16,-16 16,-160 143,-160 143,-16 16,-16"/>
<text text-anchor="middle" x="79.5" y="-144.8" font-family="Times,serif" font-size="14.00">testing</text>
<text text-anchor="middle" x="79.5" y="-129.8" font-family="Times,serif" font-size="14.00"> repository</text>
</g>
<g id="clust3" class="cluster">
<title>cluster_2</title>
<polygon fill="lightblue" stroke="lightblue" points="238,-16 238,-160 365,-160 365,-16 238,-16"/>
<text text-anchor="middle" x="301.5" y="-144.8" font-family="Times,serif" font-size="14.00">release</text>
<text text-anchor="middle" x="301.5" y="-129.8" font-family="Times,serif" font-size="14.00"> repository</text>
</g>
<!-- zlib/1.3.1 -->
<g id="node1" class="node">
<title>zlib/1.3.1</title>
<polygon fill="lightskyblue" stroke="black" points="121,-60 38,-60 38,-24 121,-24 121,-60"/>
<text text-anchor="middle" x="79.5" y="-38.3" font-family="Times,serif" font-size="14.00">zlib/1.3.1</text>
</g>
<!-- zlibpromoted -->
<g id="node3" class="node">
<title>zlibpromoted</title>
<polygon fill="lightskyblue" stroke="black" points="343,-60 260,-60 260,-24 343,-24 343,-60"/>
<text text-anchor="middle" x="301.5" y="-38.3" font-family="Times,serif" font-size="14.00">zlib/1.3.1</text>
</g>
<!-- zlib/1.3.1&#45;&gt;zlibpromoted -->
<g id="edge1" class="edge">
<title>zlib/1.3.1&#45;&gt;zlibpromoted</title>
<path fill="none" stroke="black" d="M121.11,-42C157.35,-42 210.58,-42 249.65,-42"/>
<polygon fill="black" stroke="black" points="249.76,-45.5 259.76,-42 249.76,-38.5 249.76,-45.5"/>
</g>
<!-- openssl/3.2.2 -->
<g id="node2" class="node">
<title>openssl/3.2.2</title>
<polygon fill="lightskyblue" stroke="black" points="135,-114 24,-114 24,-78 135,-78 135,-114"/>
<text text-anchor="middle" x="79.5" y="-92.3" font-family="Times,serif" font-size="14.00">openssl/3.2.2</text>
</g>
<!-- opensslpromoted -->
<g id="node4" class="node">
<title>opensslpromoted</title>
<polygon fill="lightskyblue" stroke="black" points="357,-114 246,-114 246,-78 357,-78 357,-114"/>
<text text-anchor="middle" x="301.5" y="-92.3" font-family="Times,serif" font-size="14.00">openssl/3.2.2</text>
</g>
<!-- openssl/3.2.2&#45;&gt;opensslpromoted -->
<g id="edge2" class="edge">
<title>openssl/3.2.2&#45;&gt;opensslpromoted</title>
<path fill="none" stroke="black" d="M135.16,-96C165.59,-96 203.66,-96 235.6,-96"/>
<polygon fill="black" stroke="black" points="235.74,-99.5 245.74,-96 235.74,-92.5 235.74,-99.5"/>
<text text-anchor="middle" x="190.5" y="-99.8" font-family="Times,serif" font-size="14.00">Promotion</text>
</g>
</g>
</svg>
