<?xml version="1.0" encoding="UTF-8" standalone="no"?>
<!DOCTYPE svg PUBLIC "-//W3C//DTD SVG 1.1//EN"
 "http://www.w3.org/Graphics/SVG/1.1/DTD/svg11.dtd">
<!-- Generated by graphviz version 2.43.0 (0)
 -->
<!-- Title: conflict Pages: 1 -->
<svg width="392pt" height="188pt"
 viewBox="0.00 0.00 391.50 188.00" xmlns="http://www.w3.org/2000/svg" xmlns:xlink="http://www.w3.org/1999/xlink">
<g id="graph0" class="graph" transform="scale(1 1) rotate(0) translate(4 184)">
<title>conflict</title>
<polygon fill="white" stroke="transparent" points="-4,4 -4,-184 387.5,-184 387.5,4 -4,4"/>
<!-- game/1.0 -->
<g id="node1" class="node">
<title>game/1.0</title>
<polygon fill="lightskyblue" stroke="black" points="161.5,-36 78.5,-36 78.5,0 161.5,0 161.5,-36"/>
<text text-anchor="middle" x="120" y="-14.3" font-family="Times,serif" font-size="14.00">game/1.0</text>
</g>
<!-- engine/1.0 -->
<g id="node2" class="node">
<title>engine/1.0</title>
<polygon fill="lightskyblue" stroke="black" points="92,-108 0,-108 0,-72 92,-72 92,-108"/>
<text text-anchor="middle" x="46" y="-86.3" font-family="Times,serif" font-size="14.00">engine/1.0</text>
</g>
<!-- game/1.0&#45;&gt;engine/1.0 -->
<g id="edge1" class="edge">
<title>game/1.0&#45;&gt;engine/1.0</title>
<path fill="none" stroke="black" d="M101.71,-36.3C92.57,-44.95 81.36,-55.55 71.4,-64.97"/>
<polygon fill="black" stroke="black" points="68.94,-62.48 64.08,-71.9 73.75,-67.57 68.94,-62.48"/>
</g>
<!-- matrix/1.2 -->
<g id="node3" class="node">
<title>matrix/1.2</title>
<polygon fill="lightskyblue" stroke="black" points="165.5,-180 74.5,-180 74.5,-144 165.5,-144 165.5,-180"/>
<text text-anchor="middle" x="120" y="-158.3" font-family="Times,serif" font-size="14.00">matrix/1.2</text>
</g>
<!-- game/1.0&#45;&gt;matrix/1.2 -->
<g id="edge5" class="edge">
<title>game/1.0&#45;&gt;matrix/1.2</title>
<path fill="none" stroke="black" d="M120,-36.13C120,-60.33 120,-104.79 120,-133.61"/>
<polygon fill="black" stroke="black" points="116.5,-133.81 120,-143.81 123.5,-133.81 116.5,-133.81"/>
</g>
<!-- intro/1.0 -->
<g id="node4" class="node">
<title>intro/1.0</title>
<polygon fill="lightskyblue" stroke="black" points="226,-108 148,-108 148,-72 226,-72 226,-108"/>
<text text-anchor="middle" x="187" y="-86.3" font-family="Times,serif" font-size="14.00">intro/1.0</text>
</g>
<!-- game/1.0&#45;&gt;intro/1.0 -->
<g id="edge3" class="edge">
<title>game/1.0&#45;&gt;intro/1.0</title>
<path fill="none" stroke="black" d="M136.56,-36.3C144.68,-44.78 154.59,-55.14 163.47,-64.42"/>
<polygon fill="black" stroke="black" points="161.19,-67.09 170.63,-71.9 166.24,-62.25 161.19,-67.09"/>
</g>
<!-- engine/1.0&#45;&gt;matrix/1.2 -->
<g id="edge2" class="edge">
<title>engine/1.0&#45;&gt;matrix/1.2</title>
<path fill="none" stroke="black" d="M64.29,-108.3C73.43,-116.95 84.64,-127.55 94.6,-136.97"/>
<polygon fill="black" stroke="black" points="92.25,-139.57 101.92,-143.9 97.06,-134.48 92.25,-139.57"/>
</g>
<!-- matrix/1.0 -->
<g id="node5" class="node">
<title>matrix/1.0</title>
<polygon fill="lightskyblue" stroke="black" points="274.5,-180 183.5,-180 183.5,-144 274.5,-144 274.5,-180"/>
<text text-anchor="middle" x="229" y="-158.3" font-family="Times,serif" font-size="14.00">matrix/1.0</text>
</g>
<!-- matrix/1.2&#45;&gt;matrix/1.0 -->
<!-- intro/1.0&#45;&gt;matrix/1.2 -->
<g id="edge4" class="edge">
<title>intro/1.0&#45;&gt;matrix/1.2</title>
<path fill="none" stroke="black" d="M170.44,-108.3C162.32,-116.78 152.41,-127.14 143.53,-136.42"/>
<polygon fill="black" stroke="black" points="140.76,-134.25 136.37,-143.9 145.81,-139.09 140.76,-134.25"/>
</g>
<!-- matrix/1.1 -->
<g id="node6" class="node">
<title>matrix/1.1</title>
<polygon fill="lightskyblue" stroke="black" points="383.5,-180 292.5,-180 292.5,-144 383.5,-144 383.5,-180"/>
<text text-anchor="middle" x="338" y="-158.3" font-family="Times,serif" font-size="14.00">matrix/1.1</text>
</g>
<!-- matrix/1.0&#45;&gt;matrix/1.1 -->
</g>
</svg>
