<?xml version="1.0" encoding="UTF-8" standalone="no"?>
<!DOCTYPE svg PUBLIC "-//W3C//DTD SVG 1.1//EN"
 "http://www.w3.org/Graphics/SVG/1.1/DTD/svg11.dtd">
<!-- Generated by graphviz version 2.43.0 (0)
 -->
<!-- Title: repositories Pages: 1 -->
<svg width="811pt" height="265pt"
 viewBox="0.00 0.00 811.00 265.00" xmlns="http://www.w3.org/2000/svg" xmlns:xlink="http://www.w3.org/1999/xlink">
<g id="graph0" class="graph" transform="scale(1 1) rotate(0) translate(4 261)">
<title>repositories</title>
<polygon fill="white" stroke="transparent" points="-4,4 -4,-261 807,-261 807,4 -4,4"/>
<g id="clust1" class="cluster">
<title>cluster_0</title>
<polygon fill="lightgrey" stroke="lightgrey" points="8,-8 8,-249 795,-249 795,-8 8,-8"/>
<text text-anchor="middle" x="401.5" y="-233.8" font-family="Times,serif" font-size="14.00">Packages server</text>
</g>
<g id="clust2" class="cluster">
<title>cluster_1</title>
<polygon fill="lightblue" stroke="lightblue" points="16,-16 16,-218 119,-218 119,-16 16,-16"/>
<text text-anchor="middle" x="67.5" y="-202.8" font-family="Times,serif" font-size="14.00">packages</text>
<text text-anchor="middle" x="67.5" y="-187.8" font-family="Times,serif" font-size="14.00"> repository</text>
</g>
<g id="clust3" class="cluster">
<title>cluster_2</title>
<polygon fill="lightblue" stroke="lightblue" points="139,-128 139,-218 235,-218 235,-128 139,-128"/>
<text text-anchor="middle" x="187" y="-202.8" font-family="Times,serif" font-size="14.00">products</text>
<text text-anchor="middle" x="187" y="-187.8" font-family="Times,serif" font-size="14.00"> repository</text>
</g>
<g id="clust4" class="cluster">
<title>cluster_3</title>
<polygon fill="lightblue" stroke="lightblue" points="255,-74 255,-203 787,-203 787,-74 255,-74"/>
<text text-anchor="middle" x="521" y="-187.8" font-family="Times,serif" font-size="14.00">develop repository</text>
</g>
<!-- packages -->
<!-- products -->
<!-- packages&#45;&gt;products -->
<!-- ai/1.1.0\n (Release) -->
<g id="node2" class="node">
<title>ai/1.1.0\n (Release)</title>
<polygon fill="lightskyblue" stroke="black" points="111,-118 24,-118 24,-80 111,-80 111,-118"/>
<text text-anchor="middle" x="67.5" y="-102.8" font-family="Times,serif" font-size="14.00">ai/1.1.0</text>
<text text-anchor="middle" x="67.5" y="-87.8" font-family="Times,serif" font-size="14.00"> (Release)</text>
</g>
<!-- ai/1.1.0\n (Debug) -->
<g id="node3" class="node">
<title>ai/1.1.0\n (Debug)</title>
<polygon fill="lightskyblue" stroke="black" points="106.5,-62 28.5,-62 28.5,-24 106.5,-24 106.5,-62"/>
<text text-anchor="middle" x="67.5" y="-46.8" font-family="Times,serif" font-size="14.00">ai/1.1.0</text>
<text text-anchor="middle" x="67.5" y="-31.8" font-family="Times,serif" font-size="14.00"> (Debug)</text>
</g>
<!-- game/1.0 -->
<g id="node5" class="node">
<title>game/1.0</title>
<polygon fill="lightgreen" stroke="black" points="346,-172 263,-172 263,-136 346,-136 346,-172"/>
<text text-anchor="middle" x="304.5" y="-150.3" font-family="Times,serif" font-size="14.00">game/1.0</text>
</g>
<!-- products&#45;&gt;game/1.0 -->
<!-- engine/1.0 -->
<g id="node6" class="node">
<title>engine/1.0</title>
<polygon fill="lightskyblue" stroke="black" points="489,-172 397,-172 397,-136 489,-136 489,-172"/>
<text text-anchor="middle" x="443" y="-150.3" font-family="Times,serif" font-size="14.00">engine/1.0</text>
</g>
<!-- game/1.0&#45;&gt;engine/1.0 -->
<g id="edge1" class="edge">
<title>game/1.0&#45;&gt;engine/1.0</title>
<path fill="none" stroke="black" d="M346.08,-154C358.73,-154 372.91,-154 386.4,-154"/>
<polygon fill="black" stroke="black" points="386.55,-157.5 396.55,-154 386.55,-150.5 386.55,-157.5"/>
</g>
<!-- ai/1.0 -->
<g id="node7" class="node">
<title>ai/1.0</title>
<polygon fill="lightskyblue" stroke="black" points="620.5,-172 564.5,-172 564.5,-136 620.5,-136 620.5,-172"/>
<text text-anchor="middle" x="592.5" y="-150.3" font-family="Times,serif" font-size="14.00">ai/1.0</text>
</g>
<!-- engine/1.0&#45;&gt;ai/1.0 -->
<g id="edge2" class="edge">
<title>engine/1.0&#45;&gt;ai/1.0</title>
<path fill="none" stroke="black" d="M489.06,-154C509.88,-154 534.33,-154 554.11,-154"/>
<polygon fill="black" stroke="black" points="554.28,-157.5 564.28,-154 554.28,-150.5 554.28,-157.5"/>
</g>
<!-- graphics/1.0 -->
<g id="node9" class="node">
<title>graphics/1.0</title>
<polygon fill="lightskyblue" stroke="black" points="645,-118 540,-118 540,-82 645,-82 645,-118"/>
<text text-anchor="middle" x="592.5" y="-96.3" font-family="Times,serif" font-size="14.00">graphics/1.0</text>
</g>
<!-- engine/1.0&#45;&gt;graphics/1.0 -->
<g id="edge4" class="edge">
<title>engine/1.0&#45;&gt;graphics/1.0</title>
<path fill="none" stroke="black" d="M489.06,-137.5C502.82,-132.47 518.16,-126.85 532.69,-121.53"/>
<polygon fill="black" stroke="black" points="533.91,-124.81 542.1,-118.09 531.5,-118.24 533.91,-124.81"/>
</g>
<!-- mathlib/1.0 -->
<g id="node8" class="node">
<title>mathlib/1.0</title>
<polygon fill="lightskyblue" stroke="black" points="779,-145 681,-145 681,-109 779,-109 779,-145"/>
<text text-anchor="middle" x="730" y="-123.3" font-family="Times,serif" font-size="14.00">mathlib/1.0</text>
</g>
<!-- ai/1.0&#45;&gt;mathlib/1.0 -->
<g id="edge3" class="edge">
<title>ai/1.0&#45;&gt;mathlib/1.0</title>
<path fill="none" stroke="black" d="M620.59,-148.6C634.99,-145.73 653.28,-142.09 670.71,-138.62"/>
<polygon fill="black" stroke="black" points="671.71,-141.98 680.84,-136.6 670.35,-135.12 671.71,-141.98"/>
</g>
<!-- graphics/1.0&#45;&gt;mathlib/1.0 -->
<g id="edge5" class="edge">
<title>graphics/1.0&#45;&gt;mathlib/1.0</title>
<path fill="none" stroke="black" d="M645.11,-110.28C653.5,-111.96 662.24,-113.7 670.77,-115.4"/>
<polygon fill="black" stroke="black" points="670.16,-118.84 680.65,-117.37 671.53,-111.98 670.16,-118.84"/>
</g>
<!-- mapviewer/1.0 -->
<g id="node10" class="node">
<title>mapviewer/1.0</title>
<polygon fill="lightgreen" stroke="black" points="504,-118 382,-118 382,-82 504,-82 504,-118"/>
<text text-anchor="middle" x="443" y="-96.3" font-family="Times,serif" font-size="14.00">mapviewer/1.0</text>
</g>
<!-- mapviewer/1.0&#45;&gt;graphics/1.0 -->
<g id="edge6" class="edge">
<title>mapviewer/1.0&#45;&gt;graphics/1.0</title>
<path fill="none" stroke="black" d="M504.42,-100C512.79,-100 521.4,-100 529.79,-100"/>
<polygon fill="black" stroke="black" points="529.9,-103.5 539.9,-100 529.9,-96.5 529.9,-103.5"/>
</g>
</g>
</svg>
