<?xml version="1.0" encoding="UTF-8" standalone="no"?>
<!-- Created with Inkscape (http://www.inkscape.org/) -->

<svg
   width="149"
   height="37"
   viewBox="0 0 39.422916 9.7895836"
   version="1.1"
   id="svg1769"
   xmlns="http://www.w3.org/2000/svg"
   xmlns:svg="http://www.w3.org/2000/svg"
   xmlns:rdf="http://www.w3.org/1999/02/22-rdf-syntax-ns#"
   xmlns:cc="http://creativecommons.org/ns#"
   xmlns:dc="http://purl.org/dc/elements/1.1/">
  <defs
     id="defs1763">
    <marker
       orient="auto"
       refY="0"
       refX="0"
       id="marker4405"
       style="overflow:visible">
      <path
         id="path4403"
         d="M 0,0 5,-5 -12.5,0 5,5 Z"
         style="fill:#000000;fill-opacity:1;fill-rule:evenodd;stroke:#000000;stroke-width:1pt;stroke-opacity:1"
         transform="matrix(-0.8,0,0,-0.8,-10,0)" />
    </marker>
    <marker
       orient="auto"
       refY="0"
       refX="0"
       id="Arrow1Lstart"
       style="overflow:visible">
      <path
         id="path2389"
         d="M 0,0 5,-5 -12.5,0 5,5 Z"
         style="fill:#000000;fill-opacity:1;fill-rule:evenodd;stroke:#000000;stroke-width:1pt;stroke-opacity:1"
         transform="matrix(0.8,0,0,0.8,10,0)" />
    </marker>
    <marker
       orient="auto"
       refY="0"
       refX="0"
       id="Arrow1Lend"
       style="overflow:visible">
      <path
         id="path2392"
         d="M 0,0 5,-5 -12.5,0 5,5 Z"
         style="fill:#000000;fill-opacity:1;fill-rule:evenodd;stroke:#000000;stroke-width:1pt;stroke-opacity:1"
         transform="matrix(-0.8,0,0,-0.8,-10,0)" />
    </marker>
  </defs>
  <metadata
     id="metadata1766">
    <rdf:RDF>
      <cc:Work
         rdf:about="">
        <dc:format>image/svg+xml</dc:format>
        <dc:type
           rdf:resource="http://purl.org/dc/dcmitype/StillImage" />
      </cc:Work>
    </rdf:RDF>
  </metadata>
  <g
     id="layer1">
    <g
       transform="matrix(0.20036166,0,0,0.20036166,6.1696868,-18.467165)"
       id="g1745-3-3">
      <path
         id="path904-6-67-6"
         d="m 33.334478,102.25658 -1.276087,23.80689 -0.0061,0.003 c -0.08934,1.57587 -0.55403,1.79754 -0.644545,1.88447 -0.420443,0.40386 -0.969288,0.27991 -1.431912,0.32133 -0.189719,0.0171 -0.274798,1.15962 0.04972,1.15962 0.403098,0 2.284665,-0.0926 2.707616,-0.0918 0.34244,5.3e-4 2.446519,0.0918 2.947819,0.0918 0.243445,0 0.370705,-1.03417 0.105626,-1.06723 -0.334434,-0.0417 -1.200125,-0.31005 -1.274063,-0.75434 -0.01017,-0.0614 -0.02059,-0.35182 -0.02945,-0.91973 l 0.703497,-13.30253 10.175621,17.27235 9.996785,-19.87488 1.204659,15.57675 c 0.0199,0.79989 -0.03947,1.50889 -0.07995,1.58096 -0.158144,0.28144 -0.595899,0.45144 -1.099501,0.58649 -0.3945,0.10571 -0.411138,0.90798 0.161424,0.90798 1.064556,0 2.202444,-0.25797 2.625396,-0.25717 0.342437,5.3e-4 3.41059,0.24547 4.337927,0.21604 0.374592,-0.0113 0.485723,-0.78623 0.09622,-0.87103 -0.660138,-0.14372 -1.863341,-0.68218 -2.085916,-1.20514 -0.04562,-0.10717 -0.451347,-1.17783 -0.52673,-1.76188 L 56.99415,102.32777 45.888836,124.45753 Z"
         style="fill:#000000;fill-opacity:1;stroke:none;stroke-width:0.264583px;stroke-linecap:butt;stroke-linejoin:miter;stroke-opacity:1" />
      <path
         id="path906-7-5-7"
         d="m 66.900973,102.70528 c -0.312317,-0.0246 -0.418637,0.62952 -0.05394,0.71112 1.198705,0.26826 1.543521,1.04959 1.766094,1.57255 0.04894,0.11494 0.445239,1.36695 0.44487,1.85292 -0.0047,6.12333 0.345802,12.15388 0.135426,18.22902 0.100256,1.2438 -0.193648,2.39 -0.509132,2.93519 -0.18505,0.31978 -0.884081,0.66664 -1.440569,0.67016 -0.227745,0.001 -0.331782,0.75651 -0.0072,0.75651 4.310608,-0.025 8.883044,0.006 12.816334,-0.002 l 2.7e-4,-0.0188 c 0.43124,-0.43502 1.5967,-2.08483 1.82958,-3.27069 0.18948,-0.52535 0.18474,-0.98124 -0.50683,-0.0127 -0.4636,0.64927 -0.59031,0.90175 -1.32429,1.151 -1.82289,0.3852 -4.59972,0.38331 -6.355561,0.0383 -0.986536,-0.19387 -1.839515,-0.67769 -1.853692,-2.07823 v -7.99646 h 5.990643 c 0.739256,0 1.31716,1.03942 1.3397,1.60391 0.0185,0.46295 0.74548,0.48307 0.75459,0.008 l 0.026,-4.50003 c 0.004,-0.53369 -0.7806,-0.56271 -0.7806,0.008 0,0.73447 -0.921892,0.73171 -1.42577,0.76963 -1.94137,0 -3.97512,0.0127 -5.953786,0.0127 v -9.80142 h 7.151596 l -2.7e-4,0.008 c 0.85429,0.46268 1.26608,1.01883 1.29024,1.6238 0.0185,0.46295 0.62893,0.48309 0.63805,0.008 l 0.0264,-3.43815 h -1.88473 -7.235748 c -0.478738,-0.0866 -0.972265,-0.15524 -1.413794,-0.20809 -1.617876,-0.19366 -2.63534,-0.4144 -3.398684,-0.6258 -0.02257,-0.006 -0.04421,-0.01 -0.06502,-0.0113 z"
         style="fill:#000000;fill-opacity:1;stroke:none;stroke-width:0.264583px;stroke-linecap:butt;stroke-linejoin:miter;stroke-opacity:1" />
      <path
         id="path908-5-3-5"
         d="m 94.757975,103.02543 c -0.11408,2e-4 -0.22964,0.003 -0.34695,0.006 -2.58595,0.0843 -6.698092,2.61617 -6.539972,6.86354 0.08677,2.33091 2.746652,5.60719 5.031322,7.5844 2.17308,1.88065 5.586685,3.44697 5.546319,6.10751 -0.051,2.28483 -1.805601,4.27404 -5.270909,4.27404 -2.16525,-0.11423 -3.141615,-0.16572 -4.533845,-1.52671 -0.56065,-0.552 -0.693139,-1.85564 -0.705019,-2.51927 l -1.239776,-0.008 -0.0264,4.0512 c 1.89697,1.15258 4.30363,1.78611 6.4362,1.74849 5.35562,-0.13555 7.674295,-3.30385 7.756735,-6.55447 0.20533,-4.55913 -3.157431,-6.63582 -5.844601,-8.78074 -2.23068,-1.78054 -4.734939,-3.06638 -4.734939,-6.03352 0,-1.27234 2.035285,-3.41774 4.601495,-3.57283 1.467869,-4.8e-4 2.663536,0.16339 3.582067,1.19225 0.523978,0.58691 0.91614,1.19386 0.92798,1.8575 l 0.983328,0.0553 -0.0352,-4.07423 c -0.581995,0.0175 -1.212055,-0.0524 -1.771445,-0.16946 -0.0364,-0.008 -0.0666,-0.01 -0.0969,-0.0127 -0.97967,-0.18924 -2.20726,-0.49013 -3.71961,-0.4877 z"
         style="fill:#000000;fill-opacity:1;stroke:none;stroke-width:0.264583px;stroke-linecap:butt;stroke-linejoin:miter;stroke-opacity:1" />
      <path
         id="path910-3-5-3"
         d="m 119.7033,102.99102 c -7.99363,0 -13.58284,5.8792 -13.58284,14.60148 0,6.01803 5.49465,12.43311 14.00323,12.43311 9.22108,0 13.84717,-7.21361 13.81967,-13.4888 -0.0281,-6.41474 -4.43284,-13.54579 -14.24006,-13.54579 z m 10.30799,14.57345 c -0.12272,8.03534 -4.17824,10.62033 -9.57356,10.69443 -6.14582,0.0844 -10.59665,-6.47237 -10.61036,-12.01292 -0.12109,-10.12036 6.15743,-11.49973 9.07137,-11.58569 8.43605,0.16046 11.18568,8.11371 11.11255,12.90418 z"
         style="fill:#000000;fill-opacity:1;stroke:none;stroke-width:0.264583px;stroke-linecap:butt;stroke-linejoin:miter;stroke-opacity:1" />
      <path
         id="path917-5-62-5"
         d="m 139.89961,102.70719 -0.37324,23.7168 c -0.014,0.89103 -0.17468,1.31752 -0.31805,1.554 -0.24039,0.39655 -0.86073,0.68583 -1.47275,0.6826 -0.26436,-0.001 -0.30089,0.82643 0.0236,0.82643 0.75747,0 2.67875,-0.21072 3.1017,-0.20992 0.34242,5.3e-4 1.8727,0.15573 3.08741,0.15657 0.61256,0 0.41837,-0.76043 0.095,-0.81871 -0.27055,-0.0488 -1.24066,-0.44168 -1.31459,-0.82412 -0.0284,-0.1467 -0.15685,-1.69371 -0.16868,-2.66273 -0.059,-4.83509 -0.071,-9.53141 -0.0523,-14.44595 l 21.14337,19.71286 -0.0541,-23.80413 c 0,-0.68938 0.17375,-1.20182 0.37143,-1.55761 0.28835,-0.51901 0.91397,-0.60476 1.40691,-0.64762 0.25291,-0.022 0.36676,-0.86034 -0.0658,-0.86034 -0.53725,0 -2.50677,0.0341 -3.07048,0.0331 -0.45641,-7.3e-4 -2.79852,-0.16948 -3.46655,-0.18148 -0.59648,-0.01 -0.51589,0.90058 0.0537,0.89521 1.1222,-0.01 1.47204,0.66995 1.7443,1.68232 0.0443,0.16517 0.21934,0.83734 0.29759,2.23392 l 0.13745,15.66736 z"
         style="fill:#000000;fill-opacity:1;stroke:none;stroke-width:0.264583px;stroke-linecap:butt;stroke-linejoin:miter;stroke-opacity:1" />
    </g>
    <path
       style="fill:#39207c;fill-opacity:1;stroke:none;stroke-width:0.26417;stroke-miterlimit:4;stroke-dasharray:none;stroke-opacity:1"
       d="M 4.9578365,0 C 1.90949,1.72126 0.01735137,4.946295 0,8.449098 c 3.1894409,1.738918 6.9342687,1.679387 9.8366076,0.01809 3.598e-4,-0.0084 7.647e-4,-0.01645 0.00103,-0.0248 C 9.8336376,4.958381 7.9742143,1.740218 4.958348,8e-6 Z M 6.5995973,3.729488 C 7.051577,4.036632 6.984521,4.776029 6.9117209,5.282366 6.8190829,5.840124 6.2845817,6.757236 5.5898388,7.355623 5.6796988,7.484477 5.7316422,7.643151 5.7309146,7.812444 5.3003952,8.030059 4.8734926,7.784624 4.3568381,7.342187 3.8401836,6.899748 3.2829261,6.013132 3.0980009,5.102016 2.9339804,5.119386 2.7661182,5.082816 2.6220605,4.991944 2.6596865,4.481052 3.2019054,4.177342 3.6824602,3.998206 4.1630176,3.819075 5.4011485,3.7587 6.2740354,4.069006 6.3420944,3.926105 6.4547458,3.806128 6.5995973,3.730008 Z"
       id="path817-6-2-9-7-9-93-9-8-1-2" />
  </g>
</svg>
