<?xml version="1.0" encoding="UTF-8" standalone="no"?>
<!DOCTYPE svg PUBLIC "-//W3C//DTD SVG 1.1//EN"
 "http://www.w3.org/Graphics/SVG/1.1/DTD/svg11.dtd">
<!-- Generated by graphviz version 2.43.0 (0)
 -->
<!-- Title: lockfiles Pages: 1 -->
<svg width="241pt" height="131pt"
 viewBox="0.00 0.00 240.50 131.00" xmlns="http://www.w3.org/2000/svg" xmlns:xlink="http://www.w3.org/1999/xlink">
<g id="graph0" class="graph" transform="scale(1 1) rotate(0) translate(4 127)">
<title>lockfiles</title>
<polygon fill="white" stroke="transparent" points="-4,4 -4,-127 236.5,-127 236.5,4 -4,4"/>
<!-- engine/1.0 -->
<g id="node1" class="node">
<title>engine/1.0</title>
<polygon fill="lightskyblue" stroke="black" points="149.5,-36 57.5,-36 57.5,0 149.5,0 149.5,-36"/>
<text text-anchor="middle" x="103.5" y="-14.3" font-family="Times,serif" font-size="14.00">engine/1.0</text>
</g>
<!-- matrix/1.0 -->
<g id="node2" class="node">
<title>matrix/1.0</title>
<polygon fill="lightskyblue" stroke="black" points="91,-123 0,-123 0,-87 91,-87 91,-123"/>
<text text-anchor="middle" x="45.5" y="-101.3" font-family="Times,serif" font-size="14.00">matrix/1.0</text>
</g>
<!-- engine/1.0&#45;&gt;matrix/1.0 -->
<g id="edge1" class="edge">
<title>engine/1.0&#45;&gt;matrix/1.0</title>
<path fill="none" stroke="black" d="M91.76,-36.2C83.51,-48.3 72.32,-64.7 63.01,-78.33"/>
<polygon fill="black" stroke="black" points="59.97,-76.59 57.22,-86.82 65.75,-80.54 59.97,-76.59"/>
</g>
<!-- sound32/1.0 -->
<g id="node3" class="node">
<title>sound32/1.0</title>
<polygon fill="lightskyblue" stroke="black" points="213.5,-123 109.5,-123 109.5,-87 213.5,-87 213.5,-123"/>
<text text-anchor="middle" x="161.5" y="-101.3" font-family="Times,serif" font-size="14.00">sound32/1.0</text>
</g>
<!-- engine/1.0&#45;&gt;sound32/1.0 -->
<g id="edge2" class="edge">
<title>engine/1.0&#45;&gt;sound32/1.0</title>
<path fill="none" stroke="black" d="M115.24,-36.2C123.49,-48.3 134.68,-64.7 143.99,-78.33"/>
<polygon fill="black" stroke="black" points="141.25,-80.54 149.78,-86.82 147.03,-76.59 141.25,-80.54"/>
<text text-anchor="middle" x="184" y="-57.8" font-family="Times,serif" font-size="14.00">if arch==x86</text>
</g>
</g>
</svg>
