<?xml version="1.0" encoding="UTF-8" standalone="no"?>
<!DOCTYPE svg PUBLIC "-//W3C//DTD SVG 1.1//EN"
 "http://www.w3.org/Graphics/SVG/1.1/DTD/svg11.dtd">
<!-- Generated by graphviz version 2.43.0 (0)
 -->
<!-- Title: G Pages: 1 -->
<svg width="296pt" height="204pt"
 viewBox="0.00 0.00 295.50 204.00" xmlns="http://www.w3.org/2000/svg" xmlns:xlink="http://www.w3.org/1999/xlink">
<g id="graph0" class="graph" transform="scale(1 1) rotate(0) translate(4 200)">
<title>G</title>
<polygon fill="white" stroke="transparent" points="-4,4 -4,-200 291.5,-200 291.5,4 -4,4"/>
<!-- app -->
<g id="node1" class="node">
<title>app</title>
<polygon fill="lightskyblue" stroke="black" points="158.5,-196 104.5,-196 104.5,-160 158.5,-160 158.5,-196"/>
<text text-anchor="middle" x="131.5" y="-174.3" font-family="Times,serif" font-size="14.00">app</text>
</g>
<!-- libpng/1.6.40 -->
<g id="node2" class="node">
<title>libpng/1.6.40</title>
<polygon fill="lightskyblue" stroke="black" points="111,-123 0,-123 0,-87 111,-87 111,-123"/>
<text text-anchor="middle" x="55.5" y="-101.3" font-family="Times,serif" font-size="14.00">libpng/1.6.40</text>
</g>
<!-- app&#45;&gt;libpng/1.6.40 -->
<g id="edge1" class="edge">
<title>app&#45;&gt;libpng/1.6.40</title>
<path fill="none" stroke="black" d="M113.1,-159.81C103.49,-150.83 91.57,-139.69 81.07,-129.89"/>
<polygon fill="black" stroke="black" points="83.42,-127.3 73.73,-123.03 78.65,-132.41 83.42,-127.3"/>
</g>
<!-- libmysqlclient/8.1.0 -->
<g id="node3" class="node">
<title>libmysqlclient/8.1.0</title>
<polygon fill="lightskyblue" stroke="black" points="287.5,-123 129.5,-123 129.5,-87 287.5,-87 287.5,-123"/>
<text text-anchor="middle" x="208.5" y="-101.3" font-family="Times,serif" font-size="14.00">libmysqlclient/8.1.0</text>
</g>
<!-- app&#45;&gt;libmysqlclient/8.1.0 -->
<g id="edge2" class="edge">
<title>app&#45;&gt;libmysqlclient/8.1.0</title>
<path fill="none" stroke="black" d="M150.14,-159.81C159.88,-150.83 171.96,-139.69 182.6,-129.89"/>
<polygon fill="black" stroke="black" points="185.05,-132.38 190.03,-123.03 180.31,-127.23 185.05,-132.38"/>
</g>
<!-- zlib/1.2.13 -->
<g id="node4" class="node">
<title>zlib/1.2.13</title>
<polygon fill="lightskyblue" stroke="black" points="177.5,-36 85.5,-36 85.5,0 177.5,0 177.5,-36"/>
<text text-anchor="middle" x="131.5" y="-14.3" font-family="Times,serif" font-size="14.00">zlib/1.2.13</text>
</g>
<!-- libpng/1.6.40&#45;&gt;zlib/1.2.13 -->
<g id="edge3" class="edge">
<title>libpng/1.6.40&#45;&gt;zlib/1.2.13</title>
<path fill="none" stroke="black" d="M70.88,-86.8C81.9,-74.47 96.92,-57.68 109.25,-43.89"/>
<polygon fill="black" stroke="black" points="112.09,-45.96 116.14,-36.18 106.87,-41.3 112.09,-45.96"/>
<text text-anchor="middle" x="134" y="-57.8" font-family="Times,serif" font-size="14.00">[&gt;1.2 &lt;2]</text>
</g>
<!-- libmysqlclient/8.1.0&#45;&gt;zlib/1.2.13 -->
<g id="edge4" class="edge">
<title>libmysqlclient/8.1.0&#45;&gt;zlib/1.2.13</title>
<path fill="none" stroke="black" d="M197.02,-86.62C190.12,-76.67 180.87,-64.17 171.5,-54 167.99,-50.2 164.11,-46.38 160.17,-42.74"/>
<polygon fill="black" stroke="black" points="162.42,-40.06 152.63,-36 157.76,-45.27 162.42,-40.06"/>
<text text-anchor="middle" x="220" y="-57.8" font-family="Times,serif" font-size="14.00">[&gt;1.2 &lt;2]</text>
</g>
</g>
</svg>
