<?xml version="1.0" encoding="UTF-8" standalone="no"?>
<!DOCTYPE svg PUBLIC "-//W3C//DTD SVG 1.1//EN"
 "http://www.w3.org/Graphics/SVG/1.1/DTD/svg11.dtd">
<!-- Generated by graphviz version 2.43.0 (0)
 -->
<!-- Title: conflict Pages: 1 -->
<svg width="317pt" height="188pt"
 viewBox="0.00 0.00 317.00 188.00" xmlns="http://www.w3.org/2000/svg" xmlns:xlink="http://www.w3.org/1999/xlink">
<g id="graph0" class="graph" transform="scale(1 1) rotate(0) translate(4 184)">
<title>conflict</title>
<polygon fill="white" stroke="transparent" points="-4,4 -4,-184 313,-184 313,4 -4,4"/>
<!-- game/1.0 -->
<g id="node1" class="node">
<title>game/1.0</title>
<polygon fill="lightskyblue" stroke="black" points="196,-36 113,-36 113,0 196,0 196,-36"/>
<text text-anchor="middle" x="154.5" y="-14.3" font-family="Times,serif" font-size="14.00">game/1.0</text>
</g>
<!-- engine/1.0 -->
<g id="node2" class="node">
<title>engine/1.0</title>
<polygon fill="lightskyblue" stroke="black" points="94.5,-108 2.5,-108 2.5,-72 94.5,-72 94.5,-108"/>
<text text-anchor="middle" x="48.5" y="-86.3" font-family="Times,serif" font-size="14.00">engine/1.0</text>
</g>
<!-- game/1.0&#45;&gt;engine/1.0 -->
<g id="edge1" class="edge">
<title>game/1.0&#45;&gt;engine/1.0</title>
<path fill="none" stroke="black" d="M128.57,-36.12C114.84,-45.19 97.79,-56.45 82.96,-66.24"/>
<polygon fill="black" stroke="black" points="80.95,-63.38 74.53,-71.81 84.8,-69.22 80.95,-63.38"/>
</g>
<!-- intro/1.0 -->
<g id="node4" class="node">
<title>intro/1.0</title>
<polygon fill="lightskyblue" stroke="black" points="193.5,-108 115.5,-108 115.5,-72 193.5,-72 193.5,-108"/>
<text text-anchor="middle" x="154.5" y="-86.3" font-family="Times,serif" font-size="14.00">intro/1.0</text>
</g>
<!-- game/1.0&#45;&gt;intro/1.0 -->
<g id="edge3" class="edge">
<title>game/1.0&#45;&gt;intro/1.0</title>
<path fill="none" stroke="black" d="M154.5,-36.3C154.5,-44.02 154.5,-53.29 154.5,-61.89"/>
<polygon fill="black" stroke="black" points="151,-61.9 154.5,-71.9 158,-61.9 151,-61.9"/>
</g>
<!-- matrix/1.2 -->
<g id="node6" class="node">
<title>matrix/1.2</title>
<polygon fill="orange" stroke="black" points="309,-180 218,-180 218,-144 309,-144 309,-180"/>
<text text-anchor="middle" x="263.5" y="-158.3" font-family="Times,serif" font-size="14.00">matrix/1.2</text>
</g>
<!-- game/1.0&#45;&gt;matrix/1.2 -->
<g id="edge5" class="edge">
<title>game/1.0&#45;&gt;matrix/1.2</title>
<path fill="none" stroke="black" d="M171.11,-36.15C180.65,-46.28 192.65,-59.53 202.5,-72 218.61,-92.41 235.19,-116.85 246.98,-134.95"/>
<polygon fill="black" stroke="black" points="244.32,-137.28 252.69,-143.78 250.2,-133.49 244.32,-137.28"/>
</g>
<!-- matrix/1.0 -->
<g id="node3" class="node">
<title>matrix/1.0</title>
<polygon fill="orange" stroke="black" points="91,-180 0,-180 0,-144 91,-144 91,-180"/>
<text text-anchor="middle" x="45.5" y="-158.3" font-family="Times,serif" font-size="14.00">matrix/1.0</text>
</g>
<!-- engine/1.0&#45;&gt;matrix/1.0 -->
<g id="edge2" class="edge">
<title>engine/1.0&#45;&gt;matrix/1.0</title>
<path fill="none" stroke="black" d="M47.76,-108.3C47.43,-116.02 47.03,-125.29 46.66,-133.89"/>
<polygon fill="black" stroke="black" points="43.16,-133.75 46.23,-143.9 50.16,-134.05 43.16,-133.75"/>
</g>
<!-- matrix/1.1 -->
<g id="node5" class="node">
<title>matrix/1.1</title>
<polygon fill="orange" stroke="black" points="200,-180 109,-180 109,-144 200,-144 200,-180"/>
<text text-anchor="middle" x="154.5" y="-158.3" font-family="Times,serif" font-size="14.00">matrix/1.1</text>
</g>
<!-- intro/1.0&#45;&gt;matrix/1.1 -->
<g id="edge4" class="edge">
<title>intro/1.0&#45;&gt;matrix/1.1</title>
<path fill="none" stroke="black" d="M154.5,-108.3C154.5,-116.02 154.5,-125.29 154.5,-133.89"/>
<polygon fill="black" stroke="black" points="151,-133.9 154.5,-143.9 158,-133.9 151,-133.9"/>
</g>
<!-- matrix/1.1&#45;&gt;matrix/1.2 -->
</g>
</svg>
