<?xml version="1.0" encoding="UTF-8" standalone="no"?>
<!DOCTYPE svg PUBLIC "-//W3C//DTD SVG 1.1//EN"
 "http://www.w3.org/Graphics/SVG/1.1/DTD/svg11.dtd">
<!-- Generated by graphviz version 2.43.0 (0)
 -->
<!-- Title: conflict Pages: 1 -->
<svg width="208pt" height="188pt"
 viewBox="0.00 0.00 208.00 188.00" xmlns="http://www.w3.org/2000/svg" xmlns:xlink="http://www.w3.org/1999/xlink">
<g id="graph0" class="graph" transform="scale(1 1) rotate(0) translate(4 184)">
<title>conflict</title>
<polygon fill="white" stroke="transparent" points="-4,4 -4,-184 204,-184 204,4 -4,4"/>
<!-- game/1.0 -->
<g id="node1" class="node">
<title>game/1.0</title>
<polygon fill="lightskyblue" stroke="black" points="141,-36 58,-36 58,0 141,0 141,-36"/>
<text text-anchor="middle" x="99.5" y="-14.3" font-family="Times,serif" font-size="14.00">game/1.0</text>
</g>
<!-- engine/1.0 -->
<g id="node2" class="node">
<title>engine/1.0</title>
<polygon fill="lightskyblue" stroke="black" points="92.5,-108 0.5,-108 0.5,-72 92.5,-72 92.5,-108"/>
<text text-anchor="middle" x="46.5" y="-86.3" font-family="Times,serif" font-size="14.00">engine/1.0</text>
</g>
<!-- game/1.0&#45;&gt;engine/1.0 -->
<g id="edge1" class="edge">
<title>game/1.0&#45;&gt;engine/1.0</title>
<path fill="none" stroke="black" d="M86.4,-36.3C80.11,-44.61 72.45,-54.72 65.54,-63.86"/>
<polygon fill="black" stroke="black" points="62.7,-61.81 59.45,-71.9 68.28,-66.04 62.7,-61.81"/>
</g>
<!-- intro/1.0 -->
<g id="node4" class="node">
<title>intro/1.0</title>
<polygon fill="lightskyblue" stroke="black" points="191.5,-108 113.5,-108 113.5,-72 191.5,-72 191.5,-108"/>
<text text-anchor="middle" x="152.5" y="-86.3" font-family="Times,serif" font-size="14.00">intro/1.0</text>
</g>
<!-- game/1.0&#45;&gt;intro/1.0 -->
<g id="edge3" class="edge">
<title>game/1.0&#45;&gt;intro/1.0</title>
<path fill="none" stroke="black" d="M112.6,-36.3C118.89,-44.61 126.55,-54.72 133.46,-63.86"/>
<polygon fill="black" stroke="black" points="130.72,-66.04 139.55,-71.9 136.3,-61.81 130.72,-66.04"/>
</g>
<!-- matrix/1.0 -->
<g id="node3" class="node">
<title>matrix/1.0</title>
<polygon fill="orange" stroke="black" points="91,-180 0,-180 0,-144 91,-144 91,-180"/>
<text text-anchor="middle" x="45.5" y="-158.3" font-family="Times,serif" font-size="14.00">matrix/1.0</text>
</g>
<!-- engine/1.0&#45;&gt;matrix/1.0 -->
<g id="edge2" class="edge">
<title>engine/1.0&#45;&gt;matrix/1.0</title>
<path fill="none" stroke="black" d="M46.25,-108.3C46.14,-116.02 46.01,-125.29 45.89,-133.89"/>
<polygon fill="black" stroke="black" points="42.39,-133.85 45.74,-143.9 49.39,-133.95 42.39,-133.85"/>
</g>
<!-- matrix/1.1 -->
<g id="node5" class="node">
<title>matrix/1.1</title>
<polygon fill="orange" stroke="black" points="200,-180 109,-180 109,-144 200,-144 200,-180"/>
<text text-anchor="middle" x="154.5" y="-158.3" font-family="Times,serif" font-size="14.00">matrix/1.1</text>
</g>
<!-- intro/1.0&#45;&gt;matrix/1.1 -->
<g id="edge4" class="edge">
<title>intro/1.0&#45;&gt;matrix/1.1</title>
<path fill="none" stroke="black" d="M152.99,-108.3C153.21,-116.02 153.48,-125.29 153.73,-133.89"/>
<polygon fill="black" stroke="black" points="150.23,-134 154.01,-143.9 157.22,-133.8 150.23,-134"/>
</g>
</g>
</svg>
