<?xml version="1.0" encoding="UTF-8" standalone="no"?>
<!DOCTYPE svg PUBLIC "-//W3C//DTD SVG 1.1//EN"
 "http://www.w3.org/Graphics/SVG/1.1/DTD/svg11.dtd">
<!-- Generated by graphviz version 2.43.0 (0)
 -->
<!-- Title: repositories Pages: 1 -->
<svg width="818pt" height="265pt"
 viewBox="0.00 0.00 818.00 265.00" xmlns="http://www.w3.org/2000/svg" xmlns:xlink="http://www.w3.org/1999/xlink">
<g id="graph0" class="graph" transform="scale(1 1) rotate(0) translate(4 261)">
<title>repositories</title>
<polygon fill="white" stroke="transparent" points="-4,4 -4,-261 814,-261 814,4 -4,4"/>
<g id="clust1" class="cluster">
<title>cluster_0</title>
<polygon fill="lightgrey" stroke="lightgrey" points="8,-8 8,-249 802,-249 802,-8 8,-8"/>
<text text-anchor="middle" x="405" y="-233.8" font-family="Times,serif" font-size="14.00">Packages server</text>
</g>
<g id="clust2" class="cluster">
<title>cluster_1</title>
<polygon fill="lightblue" stroke="lightblue" points="16,-16 16,-218 119,-218 119,-16 16,-16"/>
<text text-anchor="middle" x="67.5" y="-202.8" font-family="Times,serif" font-size="14.00">packages</text>
<text text-anchor="middle" x="67.5" y="-187.8" font-family="Times,serif" font-size="14.00"> repository</text>
</g>
<g id="clust3" class="cluster">
<title>cluster_2</title>
<polygon fill="lightblue" stroke="lightblue" points="139,-16 139,-218 242,-218 242,-16 139,-16"/>
<text text-anchor="middle" x="190.5" y="-202.8" font-family="Times,serif" font-size="14.00">products</text>
<text text-anchor="middle" x="190.5" y="-187.8" font-family="Times,serif" font-size="14.00"> repository</text>
</g>
<g id="clust4" class="cluster">
<title>cluster_3</title>
<polygon fill="lightblue" stroke="lightblue" points="262,-74 262,-203 794,-203 794,-74 262,-74"/>
<text text-anchor="middle" x="528" y="-187.8" font-family="Times,serif" font-size="14.00">develop repository</text>
</g>
<!-- packages -->
<!-- products -->
<!-- packages&#45;&gt;products -->
<!-- ai/1.1.0\n (Release) -->
<g id="node2" class="node">
<title>ai/1.1.0\n (Release)</title>
<polygon fill="lightskyblue" stroke="black" points="111,-118 24,-118 24,-80 111,-80 111,-118"/>
<text text-anchor="middle" x="67.5" y="-102.8" font-family="Times,serif" font-size="14.00">ai/1.1.0</text>
<text text-anchor="middle" x="67.5" y="-87.8" font-family="Times,serif" font-size="14.00"> (Release)</text>
</g>
<!-- ai/1.1.0\n (Debug) -->
<g id="node3" class="node">
<title>ai/1.1.0\n (Debug)</title>
<polygon fill="lightskyblue" stroke="black" points="106.5,-62 28.5,-62 28.5,-24 106.5,-24 106.5,-62"/>
<text text-anchor="middle" x="67.5" y="-46.8" font-family="Times,serif" font-size="14.00">ai/1.1.0</text>
<text text-anchor="middle" x="67.5" y="-31.8" font-family="Times,serif" font-size="14.00"> (Debug)</text>
</g>
<!-- game/1.0 -->
<g id="node7" class="node">
<title>game/1.0</title>
<polygon fill="lightgreen" stroke="black" points="353,-172 270,-172 270,-136 353,-136 353,-172"/>
<text text-anchor="middle" x="311.5" y="-150.3" font-family="Times,serif" font-size="14.00">game/1.0</text>
</g>
<!-- products&#45;&gt;game/1.0 -->
<!-- ai/promoted release -->
<g id="node5" class="node">
<title>ai/promoted release</title>
<polygon fill="lightskyblue" stroke="black" points="234,-118 147,-118 147,-80 234,-80 234,-118"/>
<text text-anchor="middle" x="190.5" y="-102.8" font-family="Times,serif" font-size="14.00">ai/1.1.0</text>
<text text-anchor="middle" x="190.5" y="-87.8" font-family="Times,serif" font-size="14.00"> (Release)</text>
</g>
<!-- ai/promoted debug -->
<g id="node6" class="node">
<title>ai/promoted debug</title>
<polygon fill="lightskyblue" stroke="black" points="229.5,-62 151.5,-62 151.5,-24 229.5,-24 229.5,-62"/>
<text text-anchor="middle" x="190.5" y="-46.8" font-family="Times,serif" font-size="14.00">ai/1.1.0</text>
<text text-anchor="middle" x="190.5" y="-31.8" font-family="Times,serif" font-size="14.00"> (Debug)</text>
</g>
<!-- engine/1.0 -->
<g id="node8" class="node">
<title>engine/1.0</title>
<polygon fill="lightskyblue" stroke="black" points="496,-172 404,-172 404,-136 496,-136 496,-172"/>
<text text-anchor="middle" x="450" y="-150.3" font-family="Times,serif" font-size="14.00">engine/1.0</text>
</g>
<!-- game/1.0&#45;&gt;engine/1.0 -->
<g id="edge1" class="edge">
<title>game/1.0&#45;&gt;engine/1.0</title>
<path fill="none" stroke="black" d="M353.08,-154C365.73,-154 379.91,-154 393.4,-154"/>
<polygon fill="black" stroke="black" points="393.55,-157.5 403.55,-154 393.55,-150.5 393.55,-157.5"/>
</g>
<!-- ai/1.0 -->
<g id="node9" class="node">
<title>ai/1.0</title>
<polygon fill="lightskyblue" stroke="black" points="627.5,-172 571.5,-172 571.5,-136 627.5,-136 627.5,-172"/>
<text text-anchor="middle" x="599.5" y="-150.3" font-family="Times,serif" font-size="14.00">ai/1.0</text>
</g>
<!-- engine/1.0&#45;&gt;ai/1.0 -->
<g id="edge2" class="edge">
<title>engine/1.0&#45;&gt;ai/1.0</title>
<path fill="none" stroke="black" d="M496.06,-154C516.88,-154 541.33,-154 561.11,-154"/>
<polygon fill="black" stroke="black" points="561.28,-157.5 571.28,-154 561.28,-150.5 561.28,-157.5"/>
</g>
<!-- graphics/1.0 -->
<g id="node11" class="node">
<title>graphics/1.0</title>
<polygon fill="lightskyblue" stroke="black" points="652,-118 547,-118 547,-82 652,-82 652,-118"/>
<text text-anchor="middle" x="599.5" y="-96.3" font-family="Times,serif" font-size="14.00">graphics/1.0</text>
</g>
<!-- engine/1.0&#45;&gt;graphics/1.0 -->
<g id="edge4" class="edge">
<title>engine/1.0&#45;&gt;graphics/1.0</title>
<path fill="none" stroke="black" d="M496.06,-137.5C509.82,-132.47 525.16,-126.85 539.69,-121.53"/>
<polygon fill="black" stroke="black" points="540.91,-124.81 549.1,-118.09 538.5,-118.24 540.91,-124.81"/>
</g>
<!-- mathlib/1.0 -->
<g id="node10" class="node">
<title>mathlib/1.0</title>
<polygon fill="lightskyblue" stroke="black" points="786,-145 688,-145 688,-109 786,-109 786,-145"/>
<text text-anchor="middle" x="737" y="-123.3" font-family="Times,serif" font-size="14.00">mathlib/1.0</text>
</g>
<!-- ai/1.0&#45;&gt;mathlib/1.0 -->
<g id="edge3" class="edge">
<title>ai/1.0&#45;&gt;mathlib/1.0</title>
<path fill="none" stroke="black" d="M627.59,-148.6C641.99,-145.73 660.28,-142.09 677.71,-138.62"/>
<polygon fill="black" stroke="black" points="678.71,-141.98 687.84,-136.6 677.35,-135.12 678.71,-141.98"/>
</g>
<!-- graphics/1.0&#45;&gt;mathlib/1.0 -->
<g id="edge5" class="edge">
<title>graphics/1.0&#45;&gt;mathlib/1.0</title>
<path fill="none" stroke="black" d="M652.11,-110.28C660.5,-111.96 669.24,-113.7 677.77,-115.4"/>
<polygon fill="black" stroke="black" points="677.16,-118.84 687.65,-117.37 678.53,-111.98 677.16,-118.84"/>
</g>
<!-- mapviewer/1.0 -->
<g id="node12" class="node">
<title>mapviewer/1.0</title>
<polygon fill="lightgreen" stroke="black" points="511,-118 389,-118 389,-82 511,-82 511,-118"/>
<text text-anchor="middle" x="450" y="-96.3" font-family="Times,serif" font-size="14.00">mapviewer/1.0</text>
</g>
<!-- mapviewer/1.0&#45;&gt;graphics/1.0 -->
<g id="edge6" class="edge">
<title>mapviewer/1.0&#45;&gt;graphics/1.0</title>
<path fill="none" stroke="black" d="M511.42,-100C519.79,-100 528.4,-100 536.79,-100"/>
<polygon fill="black" stroke="black" points="536.9,-103.5 546.9,-100 536.9,-96.5 536.9,-103.5"/>
</g>
</g>
</svg>
