<?xml version="1.0" encoding="UTF-8" standalone="no"?>
<!DOCTYPE svg PUBLIC "-//W3C//DTD SVG 1.1//EN"
 "http://www.w3.org/Graphics/SVG/1.1/DTD/svg11.dtd">
<!-- Generated by graphviz version 2.43.0 (0)
 -->
<!-- Title: repositories Pages: 1 -->
<svg width="849pt" height="209pt"
 viewBox="0.00 0.00 849.00 209.00" xmlns="http://www.w3.org/2000/svg" xmlns:xlink="http://www.w3.org/1999/xlink">
<g id="graph0" class="graph" transform="scale(1 1) rotate(0) translate(4 205)">
<title>repositories</title>
<polygon fill="white" stroke="transparent" points="-4,4 -4,-205 845,-205 845,4 -4,4"/>
<g id="clust1" class="cluster">
<title>cluster_0</title>
<polygon fill="lightgrey" stroke="lightgrey" points="8,-8 8,-193 833,-193 833,-8 8,-8"/>
<text text-anchor="middle" x="420.5" y="-177.8" font-family="Times,serif" font-size="14.00">Packages server</text>
</g>
<g id="clust2" class="cluster">
<title>cluster_1</title>
<polygon fill="lightblue" stroke="lightblue" points="16,-72 16,-162 115,-162 115,-72 16,-72"/>
<text text-anchor="middle" x="65.5" y="-146.8" font-family="Times,serif" font-size="14.00">packages</text>
<text text-anchor="middle" x="65.5" y="-131.8" font-family="Times,serif" font-size="14.00"> repository</text>
</g>
<g id="clust3" class="cluster">
<title>cluster_2</title>
<polygon fill="lightblue" stroke="lightblue" points="135,-16 135,-162 273,-162 273,-16 135,-16"/>
<text text-anchor="middle" x="204" y="-146.8" font-family="Times,serif" font-size="14.00">products</text>
<text text-anchor="middle" x="204" y="-131.8" font-family="Times,serif" font-size="14.00"> repository</text>
</g>
<g id="clust4" class="cluster">
<title>cluster_3</title>
<polygon fill="lightblue" stroke="lightblue" points="293,-18 293,-147 825,-147 825,-18 293,-18"/>
<text text-anchor="middle" x="559" y="-131.8" font-family="Times,serif" font-size="14.00">develop repository</text>
</g>
<!-- packages -->
<!-- products -->
<!-- packages&#45;&gt;products -->
<!-- game/1.0 -->
<g id="node4" class="node">
<title>game/1.0</title>
<polygon fill="lightgreen" stroke="black" points="384,-116 301,-116 301,-80 384,-80 384,-116"/>
<text text-anchor="middle" x="342.5" y="-94.3" font-family="Times,serif" font-size="14.00">game/1.0</text>
</g>
<!-- products&#45;&gt;game/1.0 -->
<!-- ai/1.1.0\n (single config) -->
<g id="node3" class="node">
<title>ai/1.1.0\n (single config)</title>
<polygon fill="lightskyblue" stroke="black" points="265,-62 143,-62 143,-24 265,-24 265,-62"/>
<text text-anchor="middle" x="204" y="-46.8" font-family="Times,serif" font-size="14.00">ai/1.1.0</text>
<text text-anchor="middle" x="204" y="-31.8" font-family="Times,serif" font-size="14.00"> (single config)</text>
</g>
<!-- engine/1.0 -->
<g id="node5" class="node">
<title>engine/1.0</title>
<polygon fill="lightskyblue" stroke="black" points="527,-116 435,-116 435,-80 527,-80 527,-116"/>
<text text-anchor="middle" x="481" y="-94.3" font-family="Times,serif" font-size="14.00">engine/1.0</text>
</g>
<!-- game/1.0&#45;&gt;engine/1.0 -->
<g id="edge1" class="edge">
<title>game/1.0&#45;&gt;engine/1.0</title>
<path fill="none" stroke="black" d="M384.08,-98C396.73,-98 410.91,-98 424.4,-98"/>
<polygon fill="black" stroke="black" points="424.55,-101.5 434.55,-98 424.55,-94.5 424.55,-101.5"/>
</g>
<!-- ai/1.0 -->
<g id="node6" class="node">
<title>ai/1.0</title>
<polygon fill="lightskyblue" stroke="black" points="658.5,-116 602.5,-116 602.5,-80 658.5,-80 658.5,-116"/>
<text text-anchor="middle" x="630.5" y="-94.3" font-family="Times,serif" font-size="14.00">ai/1.0</text>
</g>
<!-- engine/1.0&#45;&gt;ai/1.0 -->
<g id="edge2" class="edge">
<title>engine/1.0&#45;&gt;ai/1.0</title>
<path fill="none" stroke="black" d="M527.06,-98C547.88,-98 572.33,-98 592.11,-98"/>
<polygon fill="black" stroke="black" points="592.28,-101.5 602.28,-98 592.28,-94.5 592.28,-101.5"/>
</g>
<!-- graphics/1.0 -->
<g id="node8" class="node">
<title>graphics/1.0</title>
<polygon fill="lightskyblue" stroke="black" points="683,-62 578,-62 578,-26 683,-26 683,-62"/>
<text text-anchor="middle" x="630.5" y="-40.3" font-family="Times,serif" font-size="14.00">graphics/1.0</text>
</g>
<!-- engine/1.0&#45;&gt;graphics/1.0 -->
<g id="edge4" class="edge">
<title>engine/1.0&#45;&gt;graphics/1.0</title>
<path fill="none" stroke="black" d="M527.06,-81.5C540.82,-76.47 556.16,-70.85 570.69,-65.53"/>
<polygon fill="black" stroke="black" points="571.91,-68.81 580.1,-62.09 569.5,-62.24 571.91,-68.81"/>
</g>
<!-- mathlib/1.0 -->
<g id="node7" class="node">
<title>mathlib/1.0</title>
<polygon fill="lightskyblue" stroke="black" points="817,-89 719,-89 719,-53 817,-53 817,-89"/>
<text text-anchor="middle" x="768" y="-67.3" font-family="Times,serif" font-size="14.00">mathlib/1.0</text>
</g>
<!-- ai/1.0&#45;&gt;mathlib/1.0 -->
<g id="edge3" class="edge">
<title>ai/1.0&#45;&gt;mathlib/1.0</title>
<path fill="none" stroke="black" d="M658.59,-92.6C672.99,-89.73 691.28,-86.09 708.71,-82.62"/>
<polygon fill="black" stroke="black" points="709.71,-85.98 718.84,-80.6 708.35,-79.12 709.71,-85.98"/>
</g>
<!-- graphics/1.0&#45;&gt;mathlib/1.0 -->
<g id="edge5" class="edge">
<title>graphics/1.0&#45;&gt;mathlib/1.0</title>
<path fill="none" stroke="black" d="M683.11,-54.28C691.5,-55.96 700.24,-57.7 708.77,-59.4"/>
<polygon fill="black" stroke="black" points="708.16,-62.84 718.65,-61.37 709.53,-55.98 708.16,-62.84"/>
</g>
<!-- mapviewer/1.0 -->
<g id="node9" class="node">
<title>mapviewer/1.0</title>
<polygon fill="lightgreen" stroke="black" points="542,-62 420,-62 420,-26 542,-26 542,-62"/>
<text text-anchor="middle" x="481" y="-40.3" font-family="Times,serif" font-size="14.00">mapviewer/1.0</text>
</g>
<!-- mapviewer/1.0&#45;&gt;graphics/1.0 -->
<g id="edge6" class="edge">
<title>mapviewer/1.0&#45;&gt;graphics/1.0</title>
<path fill="none" stroke="black" d="M542.42,-44C550.79,-44 559.4,-44 567.79,-44"/>
<polygon fill="black" stroke="black" points="567.9,-47.5 577.9,-44 567.9,-40.5 567.9,-47.5"/>
</g>
</g>
</svg>
