<?xml version="1.0" encoding="UTF-8" standalone="no"?>
<!DOCTYPE svg PUBLIC "-//W3C//DTD SVG 1.1//EN"
 "http://www.w3.org/Graphics/SVG/1.1/DTD/svg11.dtd">
<!-- Generated by graphviz version 2.43.0 (0)
 -->
<!-- Title: repositories Pages: 1 -->
<svg width="843pt" height="265pt"
 viewBox="0.00 0.00 843.00 265.00" xmlns="http://www.w3.org/2000/svg" xmlns:xlink="http://www.w3.org/1999/xlink">
<g id="graph0" class="graph" transform="scale(1 1) rotate(0) translate(4 261)">
<title>repositories</title>
<polygon fill="white" stroke="transparent" points="-4,4 -4,-261 839,-261 839,4 -4,4"/>
<g id="clust1" class="cluster">
<title>cluster_0</title>
<polygon fill="lightgrey" stroke="lightgrey" points="8,-8 8,-249 827,-249 827,-8 8,-8"/>
<text text-anchor="middle" x="417.5" y="-233.8" font-family="Times,serif" font-size="14.00">Packages server</text>
</g>
<g id="clust2" class="cluster">
<title>cluster_1</title>
<polygon fill="lightblue" stroke="lightblue" points="16,-16 16,-218 119,-218 119,-16 16,-16"/>
<text text-anchor="middle" x="67.5" y="-202.8" font-family="Times,serif" font-size="14.00">packages</text>
<text text-anchor="middle" x="67.5" y="-187.8" font-family="Times,serif" font-size="14.00"> repository</text>
</g>
<g id="clust3" class="cluster">
<title>cluster_2</title>
<polygon fill="lightblue" stroke="lightblue" points="139,-128 139,-218 235,-218 235,-128 139,-128"/>
<text text-anchor="middle" x="187" y="-202.8" font-family="Times,serif" font-size="14.00">products</text>
<text text-anchor="middle" x="187" y="-187.8" font-family="Times,serif" font-size="14.00"> repository</text>
</g>
<g id="clust4" class="cluster">
<title>cluster_3</title>
<polygon fill="lightblue" stroke="lightblue" points="255,-18 255,-203 819,-203 819,-18 255,-18"/>
<text text-anchor="middle" x="537" y="-187.8" font-family="Times,serif" font-size="14.00">develop repository</text>
</g>
<!-- packages -->
<!-- products -->
<!-- packages&#45;&gt;products -->
<!-- ai/1.1.0\n (Release) -->
<g id="node2" class="node">
<title>ai/1.1.0\n (Release)</title>
<polygon fill="lightskyblue" stroke="black" points="111,-118 24,-118 24,-80 111,-80 111,-118"/>
<text text-anchor="middle" x="67.5" y="-102.8" font-family="Times,serif" font-size="14.00">ai/1.1.0</text>
<text text-anchor="middle" x="67.5" y="-87.8" font-family="Times,serif" font-size="14.00"> (Release)</text>
</g>
<!-- ai/1.1.0\n (Debug) -->
<g id="node3" class="node">
<title>ai/1.1.0\n (Debug)</title>
<polygon fill="lightskyblue" stroke="black" points="106.5,-62 28.5,-62 28.5,-24 106.5,-24 106.5,-62"/>
<text text-anchor="middle" x="67.5" y="-46.8" font-family="Times,serif" font-size="14.00">ai/1.1.0</text>
<text text-anchor="middle" x="67.5" y="-31.8" font-family="Times,serif" font-size="14.00"> (Debug)</text>
</g>
<!-- game/1.0 -->
<g id="node5" class="node">
<title>game/1.0</title>
<polygon fill="lightgreen" stroke="black" points="358,-172 275,-172 275,-136 358,-136 358,-172"/>
<text text-anchor="middle" x="316.5" y="-150.3" font-family="Times,serif" font-size="14.00">game/1.0</text>
</g>
<!-- products&#45;&gt;game/1.0 -->
<!-- engine/1.0 -->
<g id="node6" class="node">
<title>engine/1.0</title>
<polygon fill="lightskyblue" stroke="black" points="513,-172 421,-172 421,-136 513,-136 513,-172"/>
<text text-anchor="middle" x="467" y="-150.3" font-family="Times,serif" font-size="14.00">engine/1.0</text>
</g>
<!-- game/1.0&#45;&gt;engine/1.0 -->
<g id="edge1" class="edge">
<title>game/1.0&#45;&gt;engine/1.0</title>
<path fill="none" stroke="black" d="M358.08,-154C374.3,-154 393.25,-154 410.7,-154"/>
<polygon fill="black" stroke="black" points="410.76,-157.5 420.76,-154 410.76,-150.5 410.76,-157.5"/>
</g>
<!-- ai/1.0 -->
<g id="node7" class="node">
<title>ai/1.0</title>
<polygon fill="lightskyblue" stroke="black" points="648.5,-172 592.5,-172 592.5,-136 648.5,-136 648.5,-172"/>
<text text-anchor="middle" x="620.5" y="-150.3" font-family="Times,serif" font-size="14.00">ai/1.0</text>
</g>
<!-- engine/1.0&#45;&gt;ai/1.0 -->
<g id="edge2" class="edge">
<title>engine/1.0&#45;&gt;ai/1.0</title>
<path fill="none" stroke="black" d="M513.04,-154C535.13,-154 561.41,-154 582.33,-154"/>
<polygon fill="black" stroke="black" points="582.43,-157.5 592.43,-154 582.43,-150.5 582.43,-157.5"/>
</g>
<!-- graphics/1.0 -->
<g id="node9" class="node">
<title>graphics/1.0</title>
<polygon fill="lightskyblue" stroke="black" points="673,-118 568,-118 568,-82 673,-82 673,-118"/>
<text text-anchor="middle" x="620.5" y="-96.3" font-family="Times,serif" font-size="14.00">graphics/1.0</text>
</g>
<!-- engine/1.0&#45;&gt;graphics/1.0 -->
<g id="edge4" class="edge">
<title>engine/1.0&#45;&gt;graphics/1.0</title>
<path fill="none" stroke="black" d="M513.04,-137.94C527.56,-132.77 543.89,-126.95 559.32,-121.45"/>
<polygon fill="black" stroke="black" points="560.54,-124.73 568.79,-118.08 558.19,-118.14 560.54,-124.73"/>
</g>
<!-- mathlib/1.0 -->
<g id="node8" class="node">
<title>mathlib/1.0</title>
<polygon fill="lightskyblue" stroke="black" points="811,-118 713,-118 713,-82 811,-82 811,-118"/>
<text text-anchor="middle" x="762" y="-96.3" font-family="Times,serif" font-size="14.00">mathlib/1.0</text>
</g>
<!-- ai/1.0&#45;&gt;mathlib/1.0 -->
<g id="edge3" class="edge">
<title>ai/1.0&#45;&gt;mathlib/1.0</title>
<path fill="none" stroke="black" d="M648.73,-143.46C664.74,-137.26 685.59,-129.19 704.97,-121.69"/>
<polygon fill="black" stroke="black" points="706.27,-124.94 714.33,-118.06 703.74,-118.41 706.27,-124.94"/>
</g>
<!-- graphics/1.0&#45;&gt;mathlib/1.0 -->
<g id="edge5" class="edge">
<title>graphics/1.0&#45;&gt;mathlib/1.0</title>
<path fill="none" stroke="black" d="M673.05,-100C682.73,-100 692.91,-100 702.77,-100"/>
<polygon fill="black" stroke="black" points="702.9,-103.5 712.9,-100 702.9,-96.5 702.9,-103.5"/>
</g>
<!-- mapviewer/1.0 -->
<g id="node10" class="node">
<title>mapviewer/1.0</title>
<polygon fill="lightgreen" stroke="black" points="528,-118 406,-118 406,-82 528,-82 528,-118"/>
<text text-anchor="middle" x="467" y="-96.3" font-family="Times,serif" font-size="14.00">mapviewer/1.0</text>
</g>
<!-- mapviewer/1.0&#45;&gt;graphics/1.0 -->
<g id="edge6" class="edge">
<title>mapviewer/1.0&#45;&gt;graphics/1.0</title>
<path fill="none" stroke="black" d="M528.31,-100C537.89,-100 547.8,-100 557.42,-100"/>
<polygon fill="black" stroke="black" points="557.7,-103.5 567.7,-100 557.7,-96.5 557.7,-103.5"/>
</g>
<!-- ai/promoted -->
<g id="node11" class="node">
<title>ai/promoted</title>
<polygon fill="lightskyblue" stroke="black" points="677,-64 564,-64 564,-26 677,-26 677,-64"/>
<text text-anchor="middle" x="620.5" y="-48.8" font-family="Times,serif" font-size="14.00">ai/1.1.0</text>
<text text-anchor="middle" x="620.5" y="-33.8" font-family="Times,serif" font-size="14.00">(new version)</text>
</g>
<!-- ai/promoted&#45;&gt;mathlib/1.0 -->
<g id="edge9" class="edge">
<title>ai/promoted&#45;&gt;mathlib/1.0</title>
<path fill="none" stroke="black" d="M669.9,-64.08C681.45,-68.64 693.86,-73.53 705.7,-78.2"/>
<polygon fill="black" stroke="black" points="704.45,-81.47 715.03,-81.88 707.01,-74.95 704.45,-81.47"/>
</g>
<!-- engine/promoted -->
<g id="node12" class="node">
<title>engine/promoted</title>
<polygon fill="lightskyblue" stroke="black" points="520.5,-64 413.5,-64 413.5,-26 520.5,-26 520.5,-64"/>
<text text-anchor="middle" x="467" y="-48.8" font-family="Times,serif" font-size="14.00">engine/1.0</text>
<text text-anchor="middle" x="467" y="-33.8" font-family="Times,serif" font-size="14.00">(new binary)</text>
</g>
<!-- engine/promoted&#45;&gt;graphics/1.0 -->
<g id="edge10" class="edge">
<title>engine/promoted&#45;&gt;graphics/1.0</title>
<path fill="none" stroke="black" d="M520.56,-64.08C533.42,-68.75 547.27,-73.78 560.41,-78.55"/>
<polygon fill="black" stroke="black" points="559.24,-81.85 569.83,-81.97 561.63,-75.27 559.24,-81.85"/>
</g>
<!-- engine/promoted&#45;&gt;ai/promoted -->
<g id="edge8" class="edge">
<title>engine/promoted&#45;&gt;ai/promoted</title>
<path fill="none" stroke="black" d="M520.56,-45C531.29,-45 542.71,-45 553.83,-45"/>
<polygon fill="black" stroke="black" points="553.94,-48.5 563.94,-45 553.94,-41.5 553.94,-48.5"/>
</g>
<!-- game/promoted -->
<g id="node13" class="node">
<title>game/promoted</title>
<polygon fill="lightgreen" stroke="black" points="370,-64 263,-64 263,-26 370,-26 370,-64"/>
<text text-anchor="middle" x="316.5" y="-48.8" font-family="Times,serif" font-size="14.00">game/1.0</text>
<text text-anchor="middle" x="316.5" y="-33.8" font-family="Times,serif" font-size="14.00">(new binary)</text>
</g>
<!-- game/promoted&#45;&gt;engine/promoted -->
<g id="edge7" class="edge">
<title>game/promoted&#45;&gt;engine/promoted</title>
<path fill="none" stroke="black" d="M370.27,-45C380.89,-45 392.14,-45 403.06,-45"/>
<polygon fill="black" stroke="black" points="403.4,-48.5 413.4,-45 403.4,-41.5 403.4,-48.5"/>
</g>
</g>
</svg>
