<?xml version="1.0" encoding="UTF-8" standalone="no"?>
<!DOCTYPE svg PUBLIC "-//W3C//DTD SVG 1.1//EN"
 "http://www.w3.org/Graphics/SVG/1.1/DTD/svg11.dtd">
<!-- Generated by graphviz version 2.43.0 (0)
 -->
<!-- Title: repositories Pages: 1 -->
<svg width="284pt" height="207pt"
 viewBox="0.00 0.00 284.00 207.00" xmlns="http://www.w3.org/2000/svg" xmlns:xlink="http://www.w3.org/1999/xlink">
<g id="graph0" class="graph" transform="scale(1 1) rotate(0) translate(4 203)">
<title>repositories</title>
<polygon fill="white" stroke="transparent" points="-4,4 -4,-203 280,-203 280,4 -4,4"/>
<g id="clust1" class="cluster">
<title>cluster_0</title>
<polygon fill="lightgrey" stroke="lightgrey" points="8,-8 8,-191 274,-191 274,-8 8,-8"/>
<text text-anchor="middle" x="141" y="-175.8" font-family="Times,serif" font-size="14.00">Packages server</text>
</g>
<g id="clust2" class="cluster">
<title>cluster_1</title>
<polygon fill="lightblue" stroke="lightblue" points="16,-16 16,-160 143,-160 143,-16 16,-16"/>
<text text-anchor="middle" x="79.5" y="-144.8" font-family="Times,serif" font-size="14.00">testing</text>
<text text-anchor="middle" x="79.5" y="-129.8" font-family="Times,serif" font-size="14.00"> repository</text>
</g>
<g id="clust3" class="cluster">
<title>cluster_2</title>
<polygon fill="lightblue" stroke="lightblue" points="171,-70 171,-160 266,-160 266,-70 171,-70"/>
<text text-anchor="middle" x="218.5" y="-144.8" font-family="Times,serif" font-size="14.00">release</text>
<text text-anchor="middle" x="218.5" y="-129.8" font-family="Times,serif" font-size="14.00"> repository</text>
</g>
<!-- zlib/1.3.1 -->
<g id="node1" class="node">
<title>zlib/1.3.1</title>
<polygon fill="lightskyblue" stroke="black" points="121,-114 38,-114 38,-78 121,-78 121,-114"/>
<text text-anchor="middle" x="79.5" y="-92.3" font-family="Times,serif" font-size="14.00">zlib/1.3.1</text>
</g>
<!-- release -->
<!-- zlib/1.3.1&#45;&gt;release -->
<!-- openssl/3.2.2 -->
<g id="node2" class="node">
<title>openssl/3.2.2</title>
<polygon fill="lightskyblue" stroke="black" points="135,-60 24,-60 24,-24 135,-24 135,-60"/>
<text text-anchor="middle" x="79.5" y="-38.3" font-family="Times,serif" font-size="14.00">openssl/3.2.2</text>
</g>
</g>
</svg>
