<?xml version="1.0" encoding="UTF-8" standalone="no"?>
<!DOCTYPE svg PUBLIC "-//W3C//DTD SVG 1.1//EN"
 "http://www.w3.org/Graphics/SVG/1.1/DTD/svg11.dtd">
<!-- Generated by graphviz version 2.43.0 (0)
 -->
<!-- Title: %3 Pages: 1 -->
<svg width="147pt" height="188pt"
 viewBox="0.00 0.00 147.09 188.00" xmlns="http://www.w3.org/2000/svg" xmlns:xlink="http://www.w3.org/1999/xlink">
<g id="graph0" class="graph" transform="scale(1 1) rotate(0) translate(4 184)">
<title>%3</title>
<polygon fill="white" stroke="transparent" points="-4,4 -4,-184 143.09,-184 143.09,4 -4,4"/>
<!-- cli -->
<g id="node1" class="node">
<title>cli</title>
<ellipse fill="none" stroke="black" cx="69.54" cy="-162" rx="27" ry="18"/>
<text text-anchor="middle" x="69.54" y="-158.3" font-family="Times,serif" font-size="14.00">cli</text>
</g>
<!-- binutils/2.38 -->
<g id="node2" class="node">
<title>binutils/2.38</title>
<ellipse fill="none" stroke="black" cx="69.54" cy="-90" rx="69.59" ry="18"/>
<text text-anchor="middle" x="69.54" y="-86.3" font-family="Times,serif" font-size="14.00">binutils/2.38</text>
</g>
<!-- cli&#45;&gt;binutils/2.38 -->
<g id="edge1" class="edge">
<title>cli&#45;&gt;binutils/2.38</title>
<path fill="none" stroke="black" d="M69.54,-143.7C69.54,-135.98 69.54,-126.71 69.54,-118.11"/>
<polygon fill="black" stroke="black" points="73.04,-118.1 69.54,-108.1 66.04,-118.1 73.04,-118.1"/>
</g>
<!-- zlib/1.2.13 -->
<g id="node3" class="node">
<title>zlib/1.2.13</title>
<ellipse fill="none" stroke="black" cx="69.54" cy="-18" rx="59.59" ry="18"/>
<text text-anchor="middle" x="69.54" y="-14.3" font-family="Times,serif" font-size="14.00">zlib/1.2.13</text>
</g>
<!-- binutils/2.38&#45;&gt;zlib/1.2.13 -->
<g id="edge2" class="edge">
<title>binutils/2.38&#45;&gt;zlib/1.2.13</title>
<path fill="none" stroke="black" d="M69.54,-71.7C69.54,-63.98 69.54,-54.71 69.54,-46.11"/>
<polygon fill="black" stroke="black" points="73.04,-46.1 69.54,-36.1 66.04,-46.1 73.04,-46.1"/>
</g>
</g>
</svg>
