<?xml version="1.0" encoding="UTF-8" standalone="no"?>
<!DOCTYPE svg PUBLIC "-//W3C//DTD SVG 1.1//EN"
 "http://www.w3.org/Graphics/SVG/1.1/DTD/svg11.dtd">
<!-- Generated by graphviz version 2.43.0 (0)
 -->
<!-- Title: game Pages: 1 -->
<svg width="232pt" height="260pt"
 viewBox="0.00 0.00 231.50 260.00" xmlns="http://www.w3.org/2000/svg" xmlns:xlink="http://www.w3.org/1999/xlink">
<g id="graph0" class="graph" transform="scale(1 1) rotate(0) translate(4 256)">
<title>game</title>
<polygon fill="white" stroke="transparent" points="-4,4 -4,-256 227.5,-256 227.5,4 -4,4"/>
<!-- game/1.0 -->
<g id="node1" class="node">
<title>game/1.0</title>
<polygon fill="lightgreen" stroke="black" points="83,-36 0,-36 0,0 83,0 83,-36"/>
<text text-anchor="middle" x="41.5" y="-14.3" font-family="Times,serif" font-size="14.00">game/1.0</text>
</g>
<!-- engine/1.0 -->
<g id="node2" class="node">
<title>engine/1.0</title>
<polygon fill="lightskyblue" stroke="black" points="98.5,-108 6.5,-108 6.5,-72 98.5,-72 98.5,-108"/>
<text text-anchor="middle" x="52.5" y="-86.3" font-family="Times,serif" font-size="14.00">engine/1.0</text>
</g>
<!-- game/1.0&#45;&gt;engine/1.0 -->
<g id="edge1" class="edge">
<title>game/1.0&#45;&gt;engine/1.0</title>
<path fill="none" stroke="black" d="M44.22,-36.3C45.43,-44.02 46.89,-53.29 48.24,-61.89"/>
<polygon fill="black" stroke="black" points="44.8,-62.56 49.81,-71.9 51.72,-61.47 44.8,-62.56"/>
</g>
<!-- mapviewer/1.0 -->
<g id="node6" class="node">
<title>mapviewer/1.0</title>
<polygon fill="lightgreen" stroke="black" points="223.5,-36 101.5,-36 101.5,0 223.5,0 223.5,-36"/>
<text text-anchor="middle" x="162.5" y="-14.3" font-family="Times,serif" font-size="14.00">mapviewer/1.0</text>
</g>
<!-- game/1.0&#45;&gt;mapviewer/1.0 -->
<!-- ai/1.0 -->
<g id="node3" class="node">
<title>ai/1.0</title>
<polygon fill="lightskyblue" stroke="black" points="80.5,-180 24.5,-180 24.5,-144 80.5,-144 80.5,-180"/>
<text text-anchor="middle" x="52.5" y="-158.3" font-family="Times,serif" font-size="14.00">ai/1.0</text>
</g>
<!-- engine/1.0&#45;&gt;ai/1.0 -->
<g id="edge2" class="edge">
<title>engine/1.0&#45;&gt;ai/1.0</title>
<path fill="none" stroke="black" d="M52.5,-108.3C52.5,-116.02 52.5,-125.29 52.5,-133.89"/>
<polygon fill="black" stroke="black" points="49,-133.9 52.5,-143.9 56,-133.9 49,-133.9"/>
</g>
<!-- graphics/1.0 -->
<g id="node5" class="node">
<title>graphics/1.0</title>
<polygon fill="lightskyblue" stroke="black" points="204,-180 99,-180 99,-144 204,-144 204,-180"/>
<text text-anchor="middle" x="151.5" y="-158.3" font-family="Times,serif" font-size="14.00">graphics/1.0</text>
</g>
<!-- engine/1.0&#45;&gt;graphics/1.0 -->
<g id="edge4" class="edge">
<title>engine/1.0&#45;&gt;graphics/1.0</title>
<path fill="none" stroke="black" d="M76.72,-108.12C89.42,-117.11 105.16,-128.24 118.92,-137.97"/>
<polygon fill="black" stroke="black" points="117,-140.89 127.19,-143.81 121.04,-135.18 117,-140.89"/>
</g>
<!-- mathlib/1.0 -->
<g id="node4" class="node">
<title>mathlib/1.0</title>
<polygon fill="lightskyblue" stroke="black" points="150.5,-252 52.5,-252 52.5,-216 150.5,-216 150.5,-252"/>
<text text-anchor="middle" x="101.5" y="-230.3" font-family="Times,serif" font-size="14.00">mathlib/1.0</text>
</g>
<!-- ai/1.0&#45;&gt;mathlib/1.0 -->
<g id="edge3" class="edge">
<title>ai/1.0&#45;&gt;mathlib/1.0</title>
<path fill="none" stroke="black" d="M64.61,-180.3C70.37,-188.53 77.36,-198.52 83.71,-207.58"/>
<polygon fill="black" stroke="black" points="80.92,-209.71 89.53,-215.9 86.66,-205.7 80.92,-209.71"/>
</g>
<!-- graphics/1.0&#45;&gt;mathlib/1.0 -->
<g id="edge5" class="edge">
<title>graphics/1.0&#45;&gt;mathlib/1.0</title>
<path fill="none" stroke="black" d="M139.14,-180.3C133.27,-188.53 126.13,-198.52 119.66,-207.58"/>
<polygon fill="black" stroke="black" points="116.68,-205.72 113.72,-215.9 122.38,-209.79 116.68,-205.72"/>
</g>
<!-- mapviewer/1.0&#45;&gt;graphics/1.0 -->
<g id="edge6" class="edge">
<title>mapviewer/1.0&#45;&gt;graphics/1.0</title>
<path fill="none" stroke="black" d="M161.17,-36.13C159.3,-60.33 155.85,-104.79 153.62,-133.61"/>
<polygon fill="black" stroke="black" points="150.11,-133.57 152.83,-143.81 157.09,-134.11 150.11,-133.57"/>
</g>
</g>
</svg>
