<?xml version="1.0" encoding="UTF-8" standalone="no"?>
<!DOCTYPE svg PUBLIC "-//W3C//DTD SVG 1.1//EN"
 "http://www.w3.org/Graphics/SVG/1.1/DTD/svg11.dtd">
<!-- Generated by graphviz version 2.43.0 (0)
 -->
<!-- Title: repositories Pages: 1 -->
<svg width="340pt" height="101pt"
 viewBox="0.00 0.00 340.00 101.00" xmlns="http://www.w3.org/2000/svg" xmlns:xlink="http://www.w3.org/1999/xlink">
<g id="graph0" class="graph" transform="scale(1 1) rotate(0) translate(4 97)">
<title>repositories</title>
<polygon fill="white" stroke="transparent" points="-4,4 -4,-97 336,-97 336,4 -4,4"/>
<g id="clust1" class="cluster">
<title>cluster_0</title>
<polygon fill="lightgrey" stroke="lightgrey" points="8,-8 8,-85 324,-85 324,-8 8,-8"/>
<text text-anchor="middle" x="166" y="-69.8" font-family="Times,serif" font-size="14.00">Packages server</text>
</g>
<!-- testing\n repository -->
<g id="node1" class="node">
<title>testing\n repository</title>
<polygon fill="lightblue" stroke="black" points="111,-54 16,-54 16,-16 111,-16 111,-54"/>
<text text-anchor="middle" x="63.5" y="-38.8" font-family="Times,serif" font-size="14.00">testing</text>
<text text-anchor="middle" x="63.5" y="-23.8" font-family="Times,serif" font-size="14.00"> repository</text>
</g>
<!-- release\n repository -->
<g id="node2" class="node">
<title>release\n repository</title>
<polygon fill="lightblue" stroke="black" points="316,-54 221,-54 221,-16 316,-16 316,-54"/>
<text text-anchor="middle" x="268.5" y="-38.8" font-family="Times,serif" font-size="14.00">release</text>
<text text-anchor="middle" x="268.5" y="-23.8" font-family="Times,serif" font-size="14.00"> repository</text>
</g>
<!-- testing\n repository&#45;&gt;release\n repository -->
<g id="edge1" class="edge">
<title>testing\n repository&#45;&gt;release\n repository</title>
<path fill="none" stroke="black" d="M111.07,-35C140.62,-35 179.07,-35 210.45,-35"/>
<polygon fill="black" stroke="black" points="210.79,-38.5 220.79,-35 210.79,-31.5 210.79,-38.5"/>
<text text-anchor="middle" x="166" y="-38.8" font-family="Times,serif" font-size="14.00">promotion</text>
</g>
</g>
</svg>
