<?xml version="1.0" encoding="UTF-8" standalone="no"?>
<!DOCTYPE svg PUBLIC "-//W3C//DTD SVG 1.1//EN"
 "http://www.w3.org/Graphics/SVG/1.1/DTD/svg11.dtd">
<!-- Generated by graphviz version 2.43.0 (0)
 -->
<!-- Title: components Pages: 1 -->
<svg width="220pt" height="116pt"
 viewBox="0.00 0.00 219.50 116.00" xmlns="http://www.w3.org/2000/svg" xmlns:xlink="http://www.w3.org/1999/xlink">
<g id="graph0" class="graph" transform="scale(1 1) rotate(0) translate(4 112)">
<title>components</title>
<polygon fill="white" stroke="transparent" points="-4,4 -4,-112 215.5,-112 215.5,4 -4,4"/>
<!-- algorithms -->
<g id="node1" class="node">
<title>algorithms</title>
<polygon fill="lightskyblue" stroke="black" points="118,-108 24,-108 24,-72 118,-72 118,-108"/>
<text text-anchor="middle" x="71" y="-86.3" font-family="Times,serif" font-size="14.00">algorithms</text>
</g>
<!-- ai -->
<g id="node2" class="node">
<title>ai</title>
<polygon fill="lightskyblue" stroke="black" points="54,-36 0,-36 0,0 54,0 54,-36"/>
<text text-anchor="middle" x="27" y="-14.3" font-family="Times,serif" font-size="14.00">ai</text>
</g>
<!-- algorithms&#45;&gt;ai -->
<g id="edge1" class="edge">
<title>algorithms&#45;&gt;ai</title>
<path fill="none" stroke="black" d="M60.12,-71.7C55.01,-63.56 48.8,-53.69 43.16,-44.7"/>
<polygon fill="black" stroke="black" points="46.04,-42.71 37.75,-36.1 40.11,-46.43 46.04,-42.71"/>
</g>
<!-- rendering -->
<g id="node3" class="node">
<title>rendering</title>
<polygon fill="lightskyblue" stroke="black" points="159.5,-36 72.5,-36 72.5,0 159.5,0 159.5,-36"/>
<text text-anchor="middle" x="116" y="-14.3" font-family="Times,serif" font-size="14.00">rendering</text>
</g>
<!-- algorithms&#45;&gt;rendering -->
<g id="edge2" class="edge">
<title>algorithms&#45;&gt;rendering</title>
<path fill="none" stroke="black" d="M82.12,-71.7C87.36,-63.56 93.7,-53.69 99.48,-44.7"/>
<polygon fill="black" stroke="black" points="102.54,-46.41 105,-36.1 96.65,-42.62 102.54,-46.41"/>
</g>
<!-- network -->
<g id="node4" class="node">
<title>network</title>
<polygon fill="lightskyblue" stroke="black" points="211.5,-108 136.5,-108 136.5,-72 211.5,-72 211.5,-108"/>
<text text-anchor="middle" x="174" y="-86.3" font-family="Times,serif" font-size="14.00">network</text>
</g>
</g>
</svg>
