<?xml version="1.0" encoding="UTF-8" standalone="no"?>
<!DOCTYPE svg PUBLIC "-//W3C//DTD SVG 1.1//EN"
 "http://www.w3.org/Graphics/SVG/1.1/DTD/svg11.dtd">
<!-- Generated by graphviz version 2.43.0 (0)
 -->
<!-- Title: repositories Pages: 1 -->
<svg width="862pt" height="346pt"
 viewBox="0.00 0.00 862.00 346.00" xmlns="http://www.w3.org/2000/svg" xmlns:xlink="http://www.w3.org/1999/xlink">
<g id="graph0" class="graph" transform="scale(1 1) rotate(0) translate(4 342)">
<title>repositories</title>
<polygon fill="white" stroke="transparent" points="-4,4 -4,-342 858,-342 858,4 -4,4"/>
<g id="clust1" class="cluster">
<title>cluster_0</title>
<polygon fill="lightgrey" stroke="lightgrey" points="8,-8 8,-330 846,-330 846,-8 8,-8"/>
<text text-anchor="middle" x="427" y="-314.8" font-family="Times,serif" font-size="14.00">Packages server</text>
</g>
<g id="clust2" class="cluster">
<title>cluster_1</title>
<polygon fill="lightblue" stroke="lightblue" points="16,-16 16,-218 119,-218 119,-16 16,-16"/>
<text text-anchor="middle" x="67.5" y="-202.8" font-family="Times,serif" font-size="14.00">packages</text>
<text text-anchor="middle" x="67.5" y="-187.8" font-family="Times,serif" font-size="14.00"> repository</text>
</g>
<g id="clust3" class="cluster">
<title>cluster_2</title>
<polygon fill="lightblue" stroke="lightblue" points="139,-16 139,-162 558.5,-162 558.5,-16 139,-16"/>
<text text-anchor="middle" x="348.75" y="-146.8" font-family="Times,serif" font-size="14.00">products</text>
<text text-anchor="middle" x="348.75" y="-131.8" font-family="Times,serif" font-size="14.00"> repository</text>
</g>
<g id="clust4" class="cluster">
<title>cluster_3</title>
<polygon fill="lightblue" stroke="lightblue" points="294,-170 294,-299 838,-299 838,-170 294,-170"/>
<text text-anchor="middle" x="566" y="-283.8" font-family="Times,serif" font-size="14.00">develop repository</text>
</g>
<!-- packages -->
<!-- products -->
<!-- packages&#45;&gt;products -->
<!-- ai/1.1.0\n (Release) -->
<g id="node2" class="node">
<title>ai/1.1.0\n (Release)</title>
<polygon fill="lightskyblue" stroke="black" points="111,-118 24,-118 24,-80 111,-80 111,-118"/>
<text text-anchor="middle" x="67.5" y="-102.8" font-family="Times,serif" font-size="14.00">ai/1.1.0</text>
<text text-anchor="middle" x="67.5" y="-87.8" font-family="Times,serif" font-size="14.00"> (Release)</text>
</g>
<!-- ai/1.1.0\n (Debug) -->
<g id="node3" class="node">
<title>ai/1.1.0\n (Debug)</title>
<polygon fill="lightskyblue" stroke="black" points="106.5,-62 28.5,-62 28.5,-24 106.5,-24 106.5,-62"/>
<text text-anchor="middle" x="67.5" y="-46.8" font-family="Times,serif" font-size="14.00">ai/1.1.0</text>
<text text-anchor="middle" x="67.5" y="-31.8" font-family="Times,serif" font-size="14.00"> (Debug)</text>
</g>
<!-- game/1.0 -->
<g id="node8" class="node">
<title>game/1.0</title>
<polygon fill="lightgreen" stroke="black" points="385,-241 302,-241 302,-205 385,-205 385,-241"/>
<text text-anchor="middle" x="343.5" y="-219.3" font-family="Times,serif" font-size="14.00">game/1.0</text>
</g>
<!-- products&#45;&gt;game/1.0 -->
<!-- ai/promoted -->
<g id="node5" class="node">
<title>ai/promoted</title>
<polygon fill="lightskyblue" stroke="black" points="550.5,-62 437.5,-62 437.5,-24 550.5,-24 550.5,-62"/>
<text text-anchor="middle" x="494" y="-46.8" font-family="Times,serif" font-size="14.00">ai/1.1.0</text>
<text text-anchor="middle" x="494" y="-31.8" font-family="Times,serif" font-size="14.00">(new version)</text>
</g>
<!-- engine/promoted -->
<g id="node6" class="node">
<title>engine/promoted</title>
<polygon fill="lightskyblue" stroke="black" points="397,-62 290,-62 290,-24 397,-24 397,-62"/>
<text text-anchor="middle" x="343.5" y="-46.8" font-family="Times,serif" font-size="14.00">engine/1.0</text>
<text text-anchor="middle" x="343.5" y="-31.8" font-family="Times,serif" font-size="14.00">(new binary)</text>
</g>
<!-- engine/promoted&#45;&gt;ai/promoted -->
<g id="edge2" class="edge">
<title>engine/promoted&#45;&gt;ai/promoted</title>
<path fill="none" stroke="black" d="M397.27,-43C406.93,-43 417.11,-43 427.09,-43"/>
<polygon fill="black" stroke="black" points="427.38,-46.5 437.38,-43 427.38,-39.5 427.38,-46.5"/>
</g>
<!-- game/promoted -->
<g id="node7" class="node">
<title>game/promoted</title>
<polygon fill="lightgreen" stroke="black" points="254,-62 147,-62 147,-24 254,-24 254,-62"/>
<text text-anchor="middle" x="200.5" y="-46.8" font-family="Times,serif" font-size="14.00">game/1.0</text>
<text text-anchor="middle" x="200.5" y="-31.8" font-family="Times,serif" font-size="14.00">(new binary)</text>
</g>
<!-- game/promoted&#45;&gt;engine/promoted -->
<g id="edge1" class="edge">
<title>game/promoted&#45;&gt;engine/promoted</title>
<path fill="none" stroke="black" d="M254,-43C262.44,-43 271.26,-43 279.9,-43"/>
<polygon fill="black" stroke="black" points="279.95,-46.5 289.95,-43 279.95,-39.5 279.95,-46.5"/>
</g>
<!-- engine/1.0 -->
<g id="node9" class="node">
<title>engine/1.0</title>
<polygon fill="lightskyblue" stroke="black" points="540,-268 448,-268 448,-232 540,-232 540,-268"/>
<text text-anchor="middle" x="494" y="-246.3" font-family="Times,serif" font-size="14.00">engine/1.0</text>
</g>
<!-- game/1.0&#45;&gt;engine/1.0 -->
<g id="edge3" class="edge">
<title>game/1.0&#45;&gt;engine/1.0</title>
<path fill="none" stroke="black" d="M385.08,-230.38C401.3,-233.33 420.25,-236.77 437.7,-239.94"/>
<polygon fill="black" stroke="black" points="437.3,-243.43 447.76,-241.78 438.55,-236.54 437.3,-243.43"/>
</g>
<!-- ai/1.0 -->
<g id="node10" class="node">
<title>ai/1.0</title>
<polygon fill="lightskyblue" stroke="black" points="671.5,-268 615.5,-268 615.5,-232 671.5,-232 671.5,-268"/>
<text text-anchor="middle" x="643.5" y="-246.3" font-family="Times,serif" font-size="14.00">ai/1.0</text>
</g>
<!-- engine/1.0&#45;&gt;ai/1.0 -->
<g id="edge4" class="edge">
<title>engine/1.0&#45;&gt;ai/1.0</title>
<path fill="none" stroke="black" d="M540.06,-250C560.88,-250 585.33,-250 605.11,-250"/>
<polygon fill="black" stroke="black" points="605.28,-253.5 615.28,-250 605.28,-246.5 605.28,-253.5"/>
</g>
<!-- graphics/1.0 -->
<g id="node12" class="node">
<title>graphics/1.0</title>
<polygon fill="lightskyblue" stroke="black" points="696,-214 591,-214 591,-178 696,-178 696,-214"/>
<text text-anchor="middle" x="643.5" y="-192.3" font-family="Times,serif" font-size="14.00">graphics/1.0</text>
</g>
<!-- engine/1.0&#45;&gt;graphics/1.0 -->
<g id="edge6" class="edge">
<title>engine/1.0&#45;&gt;graphics/1.0</title>
<path fill="none" stroke="black" d="M540.06,-233.5C553.82,-228.47 569.16,-222.85 583.69,-217.53"/>
<polygon fill="black" stroke="black" points="584.91,-220.81 593.1,-214.09 582.5,-214.24 584.91,-220.81"/>
</g>
<!-- mathlib/1.0 -->
<g id="node11" class="node">
<title>mathlib/1.0</title>
<polygon fill="lightskyblue" stroke="black" points="830,-241 732,-241 732,-205 830,-205 830,-241"/>
<text text-anchor="middle" x="781" y="-219.3" font-family="Times,serif" font-size="14.00">mathlib/1.0</text>
</g>
<!-- ai/1.0&#45;&gt;mathlib/1.0 -->
<g id="edge5" class="edge">
<title>ai/1.0&#45;&gt;mathlib/1.0</title>
<path fill="none" stroke="black" d="M671.59,-244.6C685.99,-241.73 704.28,-238.09 721.71,-234.62"/>
<polygon fill="black" stroke="black" points="722.71,-237.98 731.84,-232.6 721.35,-231.12 722.71,-237.98"/>
</g>
<!-- graphics/1.0&#45;&gt;mathlib/1.0 -->
<g id="edge7" class="edge">
<title>graphics/1.0&#45;&gt;mathlib/1.0</title>
<path fill="none" stroke="black" d="M696.11,-206.28C704.5,-207.96 713.24,-209.7 721.77,-211.4"/>
<polygon fill="black" stroke="black" points="721.16,-214.84 731.65,-213.37 722.53,-207.98 721.16,-214.84"/>
</g>
<!-- mapviewer/1.0 -->
<g id="node13" class="node">
<title>mapviewer/1.0</title>
<polygon fill="lightgreen" stroke="black" points="555,-214 433,-214 433,-178 555,-178 555,-214"/>
<text text-anchor="middle" x="494" y="-192.3" font-family="Times,serif" font-size="14.00">mapviewer/1.0</text>
</g>
<!-- mapviewer/1.0&#45;&gt;graphics/1.0 -->
<g id="edge8" class="edge">
<title>mapviewer/1.0&#45;&gt;graphics/1.0</title>
<path fill="none" stroke="black" d="M555.42,-196C563.79,-196 572.4,-196 580.79,-196"/>
<polygon fill="black" stroke="black" points="580.9,-199.5 590.9,-196 580.9,-192.5 580.9,-199.5"/>
</g>
</g>
</svg>
